<?xml version="1.0" standalone="no"?>
<!DOCTYPE svg PUBLIC "-//W3C//DTD SVG 20010904//EN"
 "http://www.w3.org/TR/2001/REC-SVG-20010904/DTD/svg10.dtd">
<svg version="1.0" xmlns="http://www.w3.org/2000/svg"
 width="16.000000pt" height="16.000000pt" viewBox="0 0 16.000000 16.000000"
 preserveAspectRatio="xMidYMid meet">
<metadata>
Created by potrace 1.11, written by Peter Selinger 2001-2013
</metadata>
<g transform="translate(0.000000,16.000000) scale(0.006154,-0.006154)"
fill="#000000" stroke="none">
<path d="M1093 2433 c-37 -13 -99 -33 -138 -44 -91 -27 -114 -40 -206 -110
-42 -32 -79 -55 -83 -52 -3 4 -6 1 -6 -5 0 -6 -9 -14 -20 -17 -39 -12 -141
-118 -201 -208 -33 -49 -86 -120 -118 -156 -71 -81 -109 -144 -116 -196 -11
-82 -17 -110 -25 -120 -13 -18 -25 -96 -30 -200 -2 -46 6 -164 15 -227 4 -24
8 -52 9 -63 3 -25 34 -119 54 -165 49 -113 74 -168 87 -190 8 -14 23 -41 34
-60 23 -42 192 -202 254 -241 24 -15 53 -39 65 -53 11 -14 24 -26 30 -26 6 0
12 -4 14 -10 2 -5 48 -29 103 -53 89 -40 107 -45 170 -43 52 1 73 -3 82 -14 9
-11 14 -12 23 -3 9 8 29 6 84 -9 80 -24 147 -29 191 -16 17 5 57 11 90 14 84
9 110 12 110 14 0 1 10 3 23 6 52 9 115 48 170 104 56 56 92 78 137 85 44 6
84 33 161 110 47 48 92 104 107 135 15 30 27 50 27 46 0 -4 7 -1 15 8 8 8 15
18 15 21 0 4 21 33 46 64 53 66 98 163 120 258 9 38 24 106 35 153 24 103 29
266 13 375 -7 45 -28 121 -50 175 -37 91 -128 269 -143 280 -4 3 -18 23 -31
45 -62 102 -257 238 -451 316 -229 91 -221 89 -342 89 -62 -1 -144 1 -184 3
-58 4 -86 0 -140 -20z m317 -153 c0 -5 -7 -10 -15 -10 -8 0 -15 5 -15 10 0 6
7 10 15 10 8 0 15 -4 15 -10z m60 -206 c0 -8 -43 -43 -52 -44 -15 0 -8 23 10
36 18 14 42 18 42 8z m357 -104 c-4 -27 -13 -33 -31 -23 -14 8 -14 11 0 31 17
25 35 21 31 -8z m-309 -166 c-17 -17 -98 -30 -98 -16 0 13 80 41 98 34 11 -4
11 -7 0 -18z m325 -116 c11 -35 13 -48 4 -48 -35 1 -61 48 -47 86 13 33 22 25
43 -38z m-798 42 c3 -5 -1 -10 -10 -10 -9 0 -13 5 -10 10 3 6 8 10 10 10 2 0
7 -4 10 -10z m-340 -170 c-3 -5 -12 -10 -18 -10 -7 0 -6 4 3 10 19 12 23 12
15 0z m805 -42 c0 -5 0 -12 0 -18 0 -5 -8 -10 -19 -10 -10 0 -23 -6 -29 -13
-9 -10 -43 -14 -71 -8 -10 2 28 36 53 46 31 13 66 14 66 3z m356 -109 c1 -43
-12 -69 -34 -69 -48 0 -58 66 -14 92 36 23 47 18 48 -23z m-366 -207 c0 -12
-56 -42 -79 -42 -32 0 -25 19 12 35 36 16 67 19 67 7z m370 -78 c0 -45 -87
-113 -113 -88 -7 7 59 101 76 108 27 10 37 5 37 -20z m290 -134 c-10 -19 -30
-28 -30 -14 0 6 30 33 38 34 1 0 -2 -9 -8 -20z m-690 -92 c-25 -23 -70 -39
-70 -25 0 8 36 44 60 60 39 27 47 -2 10 -35z m365 -75 c-7 -41 -30 -73 -52
-73 -19 0 -16 18 12 67 32 54 50 57 40 6z m-345 -183 c0 -22 -90 -45 -97 -24
-2 6 11 16 29 21 43 14 68 15 68 3z m343 -77 c-7 -22 -43 -63 -55 -63 -16 0
-8 28 17 54 28 30 47 34 38 9z m-352 -155 c-8 -21 -14 -24 -45 -20 -20 2 -36
8 -36 12 0 8 82 40 88 35 1 -1 -2 -13 -7 -27z m-391 -152 c0 -9 -7 -12 -20 -9
-11 3 -20 9 -20 14 0 5 9 9 20 9 11 0 20 -6 20 -14z"/>
</g>
</svg>
