<?xml version="1.0" encoding="utf-8"?>
<!-- Generator: Adobe Illustrator 21.0.0, SVG Export Plug-In . SVG Version: 6.00 Build 0)  -->
<svg version="1.1" id="Layer_1" xmlns="http://www.w3.org/2000/svg" xmlns:xlink="http://www.w3.org/1999/xlink" x="0px" y="0px"
	 viewBox="0 0 28 16" style="enable-background:new 0 0 28 16;" xml:space="preserve">
<style type="text/css">
	.st0{fill:#FFFFFF;}
</style>
<path id="arrow_copy_3" class="st0" d="M12.7,13h2 M26.9,1.9L26,1.1c-0.2-0.2-0.5-0.2-0.7,0L13.6,12.5c-0.2,0.2-0.2,0.5,0,0.6l0,0
	l0.8,0.8c0.2,0.2,0.5,0.2,0.7,0L26.9,2.6C27.1,2.4,27.1,2.1,26.9,1.9L26.9,1.9z M1.9,1.3L1.2,2C1,2.2,1,2.5,1.1,2.7l0,0l12.5,12.2
	c0.2,0.2,0.5,0.2,0.7,0l0.8-0.8c0.2-0.2,0.2-0.5,0-0.7l0,0L2.6,1.2C2.4,1.1,2.1,1.1,1.9,1.3L1.9,1.3L1.9,1.3z"/>
</svg>
