<?xml version="1.0" encoding="utf-8"?>
<!-- Generator: Adobe Illustrator 21.0.0, SVG Export Plug-In . SVG Version: 6.00 Build 0)  -->
<svg version="1.1" id="Layer_1" xmlns="http://www.w3.org/2000/svg" xmlns:xlink="http://www.w3.org/1999/xlink" x="0px" y="0px"
	 viewBox="0 0 30 24.4" style="enable-background:new 0 0 30 24.4;" xml:space="preserve">
<style type="text/css">
	.st0{fill:#FD8224;}
</style>
<path class="st0" d="M30,2.9c-1.1,0.5-2.3,0.8-3.5,1c1.3-0.8,2.2-2,2.7-3.4c-1.2,0.7-2.5,1.2-3.9,1.5c-2.3-2.5-6.2-2.6-8.7-0.3
	c-1.6,1.5-2.3,3.7-1.8,5.9C9.8,7.3,5.2,5,2.1,1.1c-0.5,0.9-0.8,2-0.8,3.1c0.1,2.1,1.3,4,3.1,5.1c-1,0-2.5-0.3-2.5-0.8v0.1
	c-0.1,2.9,1.8,5.4,4.6,6c-0.6,0.1-1.2,0.2-1.8,0.2c-0.4,0-0.8,0-1.2-0.1c0.8,2.5,3.1,4.2,5.7,4.3c-2.2,1.7-4.9,2.6-7.7,2.6
	c-0.5,0-1,0-1.5-0.1c2.8,1.8,6.1,2.8,9.4,2.8C20.8,24.4,27,15,27,6.9c0-0.3,0-0.5,0-0.8C28.1,5.2,29.2,4.1,30,2.9z"/>
</svg>
