<?xml version="1.0" encoding="utf-8"?>
<!-- Generator: Adobe Illustrator 21.0.0, SVG Export Plug-In . SVG Version: 6.00 Build 0)  -->
<svg version="1.1" xmlns="http://www.w3.org/2000/svg" xmlns:xlink="http://www.w3.org/1999/xlink" x="0px" y="0px"
	 viewBox="0 0 319.7 44.4" style="enable-background:new 0 0 319.7 44.4;" xml:space="preserve">
<style type="text/css">
	.st0{opacity:0.75;}
	.st1{fill:#FFFFFF;}
</style>
<g id="Isolation_Mode">
	<g>
		<g class="st0">
			<path d="M181.3,24.1c-1.6,1.6-3.8,2.2-5.7,2.3c-0.7,0-1.1,0.4-1.1,1.7l0.7,11.4c0.1,0.9-0.5,0.9-2.9,1c-2.4,0.1-2.7,0.2-2.7-1
				l-2-33.8c0-0.6,0-1,0.2-1.3c0.2-0.4,0.7-0.4,1.3-0.4l5.3-0.3c2.1-0.1,4.2,0.3,5.9,1.5c1.9,1.4,2.8,3.3,2.9,5.9l0.4,6.8
				C183.6,20,183.1,22.1,181.3,24.1 M177.5,12.4c-0.1-1.1-0.2-2.1-0.8-2.8c-0.4-0.4-0.9-0.6-1.8-0.5c-0.6,0-1.2,0.1-1.4,0.3
				c-0.1,0.2-0.1,0.4-0.1,0.7L174,20c0,0.5,0,0.9,0.4,1.1c0.3,0,0.6,0,1.2,0c0.6,0,1.3-0.2,1.8-0.9c0.6-0.9,0.5-1.7,0.5-2.7
				L177.5,12.4z"/>
		</g>
		<g>
			<path class="st1" d="M181.3,24.8c-1.6,1.6-3.8,2.2-5.7,2.3c-0.7,0-1.1,0.4-1.1,1.7l0.7,11.4c0.1,0.9-0.5,0.9-2.9,1
				c-2.4,0.1-2.7,0.2-2.7-1l-2-33.8c0-0.6,0-1,0.2-1.3c0.2-0.4,0.7-0.4,1.3-0.4l5.3-0.3c2.1-0.1,4.2,0.3,5.9,1.5
				c1.9,1.4,2.8,3.3,2.9,5.9l0.4,6.8C183.6,20.7,183.1,22.8,181.3,24.8 M177.5,13.2c-0.1-1.1-0.2-2.1-0.8-2.8
				c-0.4-0.4-0.9-0.6-1.8-0.5c-0.6,0-1.2,0.1-1.4,0.3c-0.1,0.2-0.1,0.4-0.1,0.7l0.6,9.9c0,0.5,0,0.9,0.4,1.1c0.3,0,0.6,0,1.2,0
				c0.6,0,1.3-0.2,1.8-0.9c0.6-0.9,0.5-1.7,0.5-2.7L177.5,13.2z"/>
		</g>
	</g>
	<g>
		<g class="st0">
			<path d="M194.1,27.8c-4.8-0.2-7.4-3.6-7.3-7.8l0.4-8.7c0.2-4.5,3.6-7.3,7.9-7.2c4.5,0.2,7.5,3.2,7.3,7.8l-0.4,8.7
				C201.9,25,199.2,28,194.1,27.8 M196.7,12.7c0.1-1.5-0.3-3.2-1.9-3.2c-1.6-0.1-2.1,1.6-2.1,3.1l0-0.1c-0.3,7.1-0.4,9.7,1.6,9.8
				C196.2,22.3,196.4,20.6,196.7,12.7L196.7,12.7z"/>
		</g>
		<g>
			<path class="st1" d="M194.1,28.5c-4.8-0.2-7.4-3.6-7.3-7.8l0.4-8.7c0.2-4.5,3.6-7.3,7.9-7.2c4.5,0.2,7.5,3.2,7.3,7.8l-0.4,8.7
				C201.9,25.7,199.2,28.7,194.1,28.5 M196.7,13.4c0.1-1.5-0.3-3.2-1.9-3.2c-1.6-0.1-2.1,1.6-2.1,3.1l0-0.1
				c-0.3,7.1-0.4,9.7,1.6,9.8C196.2,23.1,196.4,21.3,196.7,13.4L196.7,13.4z"/>
		</g>
	</g>
	<g>
		<g class="st0">
			<path d="M217.7,21.1c-1.8,1.4-4.1,1.6-6,1.4c-0.7-0.1-1.2,0.2-1.3,1.5l-1.1,11.4c-0.1,0.9-0.6,0.8-3,0.6
				c-2.3-0.2-2.7-0.3-2.5-1.4L207,0.8c0.1-0.6,0.2-1,0.4-1.3c0.3-0.3,0.7-0.2,1.3-0.2l5.3,0.5c2.1,0.2,4.1,0.9,5.6,2.4
				c1.6,1.6,2.2,3.7,2,6.3l-0.7,6.8C220.7,17.5,219.9,19.5,217.7,21.1 M215.8,9.1c0.1-1.1,0.1-2.1-0.4-2.9c-0.4-0.5-0.8-0.7-1.7-0.8
				c-0.6-0.1-1.2-0.1-1.4,0.1c-0.2,0.2-0.2,0.4-0.2,0.7l-0.9,9.9c0,0.5-0.1,0.9,0.2,1.1c0.3,0.1,0.6,0.1,1.1,0.2
				c0.6,0.1,1.3,0,2-0.7c0.8-0.8,0.8-1.6,0.9-2.6L215.8,9.1z"/>
		</g>
		<g>
			<path class="st1" d="M217.7,21.8c-1.8,1.4-4.1,1.6-6,1.4c-0.7-0.1-1.2,0.2-1.3,1.5l-1.1,11.4c-0.1,0.9-0.6,0.8-3,0.6
				c-2.3-0.2-2.7-0.3-2.5-1.4L207,1.5c0.1-0.6,0.2-1,0.4-1.3c0.3-0.3,0.7-0.2,1.3-0.2l5.3,0.5c2.1,0.2,4.1,0.9,5.6,2.4
				c1.6,1.6,2.2,3.7,2,6.3l-0.7,6.8C220.7,18.2,219.9,20.2,217.7,21.8 M215.8,9.8c0.1-1.1,0.1-2.1-0.4-2.9c-0.4-0.5-0.8-0.7-1.7-0.8
				c-0.6-0.1-1.2-0.1-1.4,0.1c-0.2,0.2-0.2,0.4-0.2,0.7l-0.9,9.9c0,0.5-0.1,0.9,0.2,1.1c0.3,0.1,0.6,0.1,1.1,0.2
				c0.6,0.1,1.3,0,2-0.7c0.8-0.8,0.8-1.6,0.9-2.6L215.8,9.8z"/>
		</g>
	</g>
	<g>
		<g class="st0">
			<path d="M234.9,23.3c-1.8,1.4-4.1,1.6-6,1.4c-0.7-0.1-1.2,0.2-1.3,1.5l-1,11.4c-0.1,0.9-0.6,0.8-3,0.6c-2.3-0.2-2.7-0.2-2.6-1.4
				l3-33.7c0.1-0.6,0.1-1,0.4-1.3c0.3-0.3,0.7-0.3,1.3-0.2l5.3,0.5c2.1,0.2,4.1,0.9,5.6,2.3c1.6,1.6,2.2,3.7,2,6.3l-0.6,6.8
				C237.8,19.7,237,21.7,234.9,23.3 M232.9,11.3c0.1-1.1,0.1-2.1-0.4-2.9c-0.4-0.5-0.8-0.7-1.7-0.8c-0.6-0.1-1.2-0.1-1.4,0.1
				c-0.2,0.2-0.2,0.4-0.2,0.7l-0.9,9.9c0,0.5-0.1,0.9,0.2,1.1c0.3,0.1,0.6,0.1,1.1,0.2c0.6,0.1,1.3,0,2-0.7c0.8-0.8,0.8-1.6,0.9-2.6
				L232.9,11.3z"/>
		</g>
		<g>
			<path class="st1" d="M234.9,24c-1.8,1.4-4.1,1.6-6,1.4c-0.7-0.1-1.2,0.2-1.3,1.5l-1,11.4c-0.1,0.9-0.6,0.8-3,0.6
				c-2.3-0.2-2.7-0.2-2.6-1.4l3-33.7c0.1-0.6,0.1-1,0.4-1.3c0.3-0.3,0.7-0.3,1.3-0.2l5.3,0.5c2.1,0.2,4.1,0.9,5.6,2.3
				c1.6,1.6,2.2,3.7,2,6.3l-0.6,6.8C237.8,20.4,237,22.4,234.9,24 M232.9,12c0.1-1.1,0.1-2.1-0.4-2.9c-0.4-0.5-0.8-0.7-1.7-0.8
				c-0.6-0.1-1.2-0.1-1.4,0.1c-0.2,0.2-0.2,0.4-0.2,0.7l-0.9,9.9c0,0.5-0.1,0.9,0.2,1.1c0.3,0.1,0.6,0.1,1.1,0.2
				c0.6,0.1,1.3,0,2-0.7c0.8-0.8,0.8-1.6,0.9-2.6L232.9,12z"/>
		</g>
	</g>
	<g>
		<g class="st0">
			<path d="M250.7,40.1c-1.5-0.2-2.5-0.2-2.5-0.9c-0.1-3-0.1-5-0.2-7.9c0-0.5-0.6-0.5-1.5-0.6c-1-0.1-1.5-0.3-1.6,0.2
				c-0.6,2.9-1.1,4.8-1.7,7.8c-0.1,0.6-1.3,0.4-2.9,0.2c-0.8-0.1-2.6-0.3-2.5-0.8c3.4-13.4,5.8-22.3,8.9-34.7
				c0.2-0.7,1.6-0.6,2.8-0.5c1.3,0.1,2.7,0.4,2.7,1.2c0.5,13.5,0.8,21.8,1.4,35.6C253.6,40.4,252.1,40.2,250.7,40.1 M248.5,16.3
				c0-0.3,0.1-1.4-0.3-1.5c-0.3,0-0.5,1.3-0.5,1.5c-0.7,4-1.2,6.6-1.8,9.9c-0.1,0.4,0.2,0.4,1,0.5c0.7,0.1,1.2,0.2,1.2-0.2
				C248.2,22.7,248.3,20.5,248.5,16.3"/>
		</g>
		<g>
			<path class="st1" d="M250.7,40.8c-1.5-0.2-2.5-0.2-2.5-0.9c-0.1-3-0.1-5-0.2-7.9c0-0.5-0.6-0.5-1.5-0.6c-1-0.1-1.5-0.3-1.6,0.2
				c-0.6,2.9-1.1,4.8-1.7,7.8c-0.1,0.6-1.3,0.4-2.9,0.2c-0.8-0.1-2.6-0.3-2.5-0.8c3.4-13.4,5.8-22.3,8.9-34.7
				c0.2-0.7,1.6-0.6,2.8-0.5c1.3,0.1,2.7,0.4,2.7,1.2c0.5,13.5,0.8,21.8,1.4,35.6C253.6,41.2,252.1,40.9,250.7,40.8 M248.5,17.1
				c0-0.3,0.1-1.4-0.3-1.5c-0.3,0-0.5,1.3-0.5,1.5c-0.7,4-1.2,6.6-1.8,9.9c-0.1,0.4,0.2,0.4,1,0.5c0.7,0.1,1.2,0.2,1.2-0.2
				C248.2,23.4,248.3,21.2,248.5,17.1"/>
		</g>
	</g>
	<g>
		<g class="st0">
			<path d="M270.2,38.2c-1.7,1.7-4.1,2.3-6.2,2.2c-1.6,0-3.8,0-5.1-0.1c-0.7-0.1-1.4,0-1.6-0.3c-0.3-0.4-0.3-0.5-0.3-1.6l0.6-33.2
				c0-0.7,0-1.1,0.3-1.4c0.3-0.3,0.7-0.2,1.3-0.2l5.2,0.1c2.3,0,4.6,0.8,6.2,2.3c1.4,1.5,2,3.6,1.9,5.7l-0.1,4.4
				c0,1.6-0.4,2.6-1.1,3.5c-1,1.2-2.4,1.4-2.4,1.6c0,0.2,1.7,0.3,2.7,1.8c0.6,1,0.8,1.8,0.8,3.3l-0.1,6.1
				C272.4,34.6,271.9,36.4,270.2,38.2 M267,12.9c0-1.1,0-2.1-0.7-2.9c-0.4-0.4-0.7-0.6-1.7-0.7c-0.6,0-1,0-1.2,0.2
				c-0.2,0.2-0.2,0.4-0.2,0.7l-0.1,7.8c0,0.5,0,0.8,0.2,1c0.3,0.2,0.5,0.2,0.9,0.2c0.6,0,1.3-0.1,1.9-0.8c0.7-0.7,0.8-1.5,0.8-2
				L267,12.9z M266.9,27.6c0-1.9-0.6-3.3-2.1-3.3c-1.7,0-1.9,0-1.9,1l-0.2,8.6c0,0.5,0,1,0.3,1.1c0.3,0.1,0.5,0.1,1,0.1
				c0.5,0,1.3-0.1,1.9-0.7c0.7-0.7,0.8-1.3,0.8-2.3L266.9,27.6z"/>
		</g>
		<g>
			<path class="st1" d="M270.2,38.9c-1.7,1.7-4.1,2.3-6.2,2.2c-1.6,0-3.8,0-5.1-0.1c-0.7-0.1-1.4,0-1.6-0.3
				c-0.3-0.4-0.3-0.5-0.3-1.6l0.6-33.2c0-0.7,0-1.1,0.3-1.4c0.3-0.3,0.7-0.2,1.3-0.2l5.2,0.1c2.3,0,4.6,0.8,6.2,2.3
				c1.4,1.5,2,3.6,1.9,5.7l-0.1,4.4c0,1.6-0.4,2.6-1.1,3.5c-1,1.2-2.4,1.4-2.4,1.6c0,0.2,1.7,0.3,2.7,1.8c0.6,1,0.8,1.8,0.8,3.3
				l-0.1,6.1C272.4,35.3,271.9,37.1,270.2,38.9 M267,13.6c0-1.1,0-2.1-0.7-2.9c-0.4-0.4-0.7-0.6-1.7-0.7c-0.6,0-1,0-1.2,0.2
				c-0.2,0.2-0.2,0.4-0.2,0.7l-0.1,7.8c0,0.5,0,0.8,0.2,1c0.3,0.2,0.5,0.2,0.9,0.2c0.6,0,1.3-0.1,1.9-0.8c0.7-0.7,0.8-1.5,0.8-2
				L267,13.6z M266.9,28.3c0-1.9-0.6-3.3-2.1-3.3c-1.7,0-1.9,0-1.9,1l-0.2,8.6c0,0.5,0,1,0.3,1.1c0.3,0.1,0.5,0.1,1,0.1
				c0.5,0,1.3-0.1,1.9-0.7c0.7-0.7,0.8-1.3,0.8-2.3L266.9,28.3z"/>
		</g>
	</g>
	<g>
		<g class="st0">
			<path d="M286.4,40.4c-2.5-0.2-8.5-0.8-10-0.9c-0.7-0.1-1.5-0.1-1.7-0.5c-0.3-0.4-0.2-1.2-0.1-1.8c1.2-12.5,1.9-21,3.1-33.5
				c0.1-0.7,0.3-0.8,2.7-0.6c2.7,0.2,3,0.3,2.9,1.2c-1,11.1-1.9,20.7-2.6,28.4c-0.1,0.7-0.2,1.6,0.1,1.9c0.2,0.2,0.9,0.3,1.4,0.3
				c1.1,0.1,3.5,0.3,4.6,0.4c0.7,0.1,0.7,0.3,0.5,2.5C287.1,40.3,287,40.5,286.4,40.4"/>
		</g>
		<g>
			<path class="st1" d="M286.4,41.1c-2.5-0.2-8.5-0.8-10-0.9c-0.7-0.1-1.5-0.1-1.7-0.5c-0.3-0.4-0.2-1.2-0.1-1.8
				c1.2-12.5,1.9-21,3.1-33.5c0.1-0.7,0.3-0.8,2.7-0.6c2.7,0.2,3,0.3,2.9,1.2c-1,11.1-1.9,20.7-2.6,28.4c-0.1,0.7-0.2,1.6,0.1,1.9
				c0.2,0.2,0.9,0.3,1.4,0.3c1.1,0.1,3.5,0.3,4.6,0.4c0.7,0.1,0.7,0.3,0.5,2.5C287.1,41,287,41.2,286.4,41.1"/>
		</g>
	</g>
	<g>
		<g class="st0">
			<path d="M301.9,39.3c-2,0-7,0.1-9,0.2c-0.7,0-1.5,0.1-1.9-0.2c-0.4-0.3-0.3-1-0.3-1.6c-0.2-11.2-0.3-18.3-0.5-29.5
				c0-0.6,0-0.7,0.3-1c0.3-0.4,0.6-0.4,1.1-0.4c2.6,0,7.1-0.1,9.7-0.2c0.6,0,0.6,0.4,0.6,2.2c0,2.1,0,2.4-0.6,2.4
				c-1.3,0-3.8,0.1-4.7,0.1c-0.4,0-0.9,0.1-1.1,0.3c-0.2,0.3-0.2,0.3-0.2,0.9c0.1,3.1,0.1,3,0.1,6.2c0,0.4-0.1,0.9,0.3,1.2
				c0.3,0.2,0.7,0.2,1,0.2c0.8,0,1.8,0,2.2,0c0.6,0,0.6,0.3,0.6,2.3c0,2,0,2.2-0.6,2.3c-0.4,0-1.3,0-2.1,0c-0.5,0-1,0.1-1.2,0.2
				c-0.4,0.3-0.3,0.8-0.3,1.4c0.1,3.7,0.1,3.2,0.1,7c0,0.6,0,1.5,0.3,1.6c0.2,0.1,0.9,0.2,1.4,0.2c1.3,0,3.2-0.1,4.4-0.1
				c0.6,0,0.6,0.2,0.6,2.2C302.5,39.1,302.5,39.3,301.9,39.3"/>
		</g>
		<g>
			<path class="st1" d="M301.9,40c-2,0-7,0.1-9,0.2c-0.7,0-1.5,0.1-1.9-0.2c-0.4-0.3-0.3-1-0.3-1.6c-0.2-11.2-0.3-18.3-0.5-29.5
				c0-0.6,0-0.7,0.3-1c0.3-0.4,0.6-0.4,1.1-0.4c2.6,0,7.1-0.1,9.7-0.2c0.6,0,0.6,0.4,0.6,2.2c0,2.1,0,2.4-0.6,2.4
				c-1.3,0-3.8,0.1-4.7,0.1c-0.4,0-0.9,0.1-1.1,0.3c-0.2,0.3-0.2,0.3-0.2,0.9c0.1,3.1,0.1,3,0.1,6.2c0,0.4-0.1,0.9,0.3,1.2
				c0.3,0.2,0.7,0.2,1,0.2c0.8,0,1.8,0,2.2,0c0.6,0,0.6,0.3,0.6,2.3c0,2,0,2.2-0.6,2.3c-0.4,0-1.3,0-2.1,0c-0.5,0-1,0.1-1.2,0.2
				c-0.4,0.3-0.3,0.8-0.3,1.4c0.1,3.7,0.1,3.2,0.1,7c0,0.6,0,1.5,0.3,1.6c0.2,0.1,0.9,0.2,1.4,0.2c1.3,0,3.2-0.1,4.4-0.1
				c0.6,0,0.6,0.2,0.6,2.2C302.5,39.8,302.5,40,301.9,40"/>
		</g>
	</g>
	<g>
		<g class="st0">
			<path d="M317.3,34.7c-1.9,2.8-3.1,3.7-6.5,3.4c-3.9-0.4-6.7-3-6.3-7.3c0-0.5,0.2-2.1,0.2-2.7c0-0.4,0.5-0.4,2.4-0.3
				c1.9,0.2,2.8,0.3,2.8,0.6c-0.1,0.6-0.1,1.5-0.2,2c-0.2,1.8,0.1,2.8,1.5,3c1.3,0.1,1.7-0.8,1.9-1.6c0.1-0.8,0.2-1.5,0.3-2.2
				c0.4-4.2-8.1-10.8-7.4-17.9c0.1-1.3,0.9-3.5,1.6-4.5c0.7-1,2.6-2.9,5.9-2.6c4.1,0.4,6.5,3.6,6.2,7.1c-0.1,0.7-0.1,1.5-0.2,2.3
				c0,0.3-0.7,0.2-2.3,0.1c-1.8-0.2-2.8-0.3-2.7-0.6c0.1-0.6,0.2-1.8,0.2-2.2c0.1-1.3-0.7-2.2-1.5-2.3c-0.9-0.1-1.6,0.6-1.8,1.4
				c-0.2,0.7-0.3,1.3-0.3,1.9c-0.5,5.6,8.2,10.4,7.5,18.1C318.3,31.9,318,33.7,317.3,34.7"/>
		</g>
		<g>
			<path class="st1" d="M317.3,35.4c-1.9,2.8-3.1,3.7-6.5,3.4c-3.9-0.4-6.7-3-6.3-7.3c0-0.5,0.2-2.1,0.2-2.7c0-0.4,0.5-0.4,2.4-0.3
				c1.9,0.2,2.8,0.3,2.8,0.6c-0.1,0.6-0.1,1.5-0.2,2c-0.2,1.8,0.1,2.8,1.5,3c1.3,0.1,1.7-0.8,1.9-1.6c0.1-0.8,0.2-1.5,0.3-2.2
				c0.4-4.2-8.1-10.8-7.4-17.9c0.1-1.3,0.9-3.5,1.6-4.5c0.7-1,2.6-2.9,5.9-2.6c4.1,0.4,6.5,3.6,6.2,7.1c-0.1,0.7-0.1,1.5-0.2,2.3
				c0,0.3-0.7,0.2-2.3,0.1c-1.8-0.2-2.8-0.3-2.7-0.6c0.1-0.6,0.2-1.8,0.2-2.2c0.1-1.3-0.7-2.2-1.5-2.3c-0.9-0.1-1.6,0.6-1.8,1.4
				c-0.2,0.7-0.3,1.3-0.3,1.9c-0.5,5.6,8.2,10.4,7.5,18.1C318.3,32.7,318,34.4,317.3,35.4"/>
		</g>
	</g>
	<g>
		<g class="st0">
			<path d="M193.9,35.5c-1.1,0.5-2.4,0-2.8-1.1c-0.5-1.1,0-2.4,1.1-2.8c1.1-0.5,2.4,0,2.8,1.1C195.5,33.7,195,35,193.9,35.5"/>
		</g>
		<g>
			<path class="st1" d="M193.9,36.2c-1.1,0.5-2.4,0-2.8-1.1c-0.5-1.1,0-2.4,1.1-2.8c1.1-0.5,2.4,0,2.8,1.1
				C195.5,34.5,195,35.7,193.9,36.2"/>
		</g>
	</g>
	<g>
		<g class="st0">
			<path d="M29.6,31.1c-4.8,0.4-7.8-2.7-8.1-7l-0.6-8.7c-0.3-4.5,2.7-7.7,7-8c4.5-0.3,7.8,2.4,8.2,6.9l0.6,8.7
				C37,27.4,34.6,30.7,29.6,31.1 M30.4,15.8c-0.1-1.5-0.7-3.1-2.2-3c-1.6,0.1-1.9,1.8-1.8,3.3l0-0.1c0.5,7,0.8,9.7,2.7,9.6
				C31,25.4,31,23.6,30.4,15.8L30.4,15.8z"/>
		</g>
		<g>
			<path class="st1" d="M29.6,31.8c-4.8,0.4-7.8-2.7-8.1-7l-0.6-8.7c-0.3-4.5,2.7-7.7,7-8c4.5-0.3,7.8,2.4,8.2,6.9l0.6,8.7
				C37,28.1,34.6,31.4,29.6,31.8 M30.4,16.5c-0.1-1.5-0.7-3.1-2.2-3c-1.6,0.1-1.9,1.8-1.8,3.3l0-0.1c0.5,7,0.8,9.7,2.7,9.6
				C31,26.1,31,24.3,30.4,16.5L30.4,16.5z"/>
		</g>
	</g>
	<g>
		<g class="st0">
			<path d="M30.3,38.7c-1,0.6-2.3,0.2-2.9-0.8c-0.6-1-0.2-2.3,0.8-2.9c1-0.6,2.3-0.2,2.9,0.8C31.6,36.8,31.3,38.1,30.3,38.7"/>
		</g>
		<g>
			<path class="st1" d="M30.3,39.4c-1,0.6-2.3,0.2-2.9-0.8c-0.6-1-0.2-2.3,0.8-2.9c1-0.6,2.3-0.2,2.9,0.8
				C31.6,37.5,31.3,38.8,30.3,39.4"/>
		</g>
	</g>
	<g>
		<g class="st0">
			<path d="M137.9,7.4l0.2,16.3l-3,0l-0.2-16.3l-3,0l0-2.8l8.9-0.1l0,2.8L137.9,7.4z"/>
		</g>
		<g>
			<path class="st1" d="M137.9,8.2l0.2,16.3l-3,0l-0.2-16.3l-3,0l0-2.8l8.9-0.1l0,2.8L137.9,8.2z"/>
		</g>
	</g>
	<g>
		<g class="st0">
			<path d="M146.2,28.1l-0.1-8l-3.2,0l0.1,8l-3,0l-0.3-19.1l3,0l0.1,8.3l3.2,0L145.9,9l3,0l0.3,19.1L146.2,28.1z"/>
		</g>
		<g>
			<path class="st1" d="M146.2,28.8l-0.1-8l-3.2,0l0.1,8l-3,0l-0.3-19.1l3,0l0.1,8.3l3.2,0l-0.1-8.3l3,0l0.3,19.1L146.2,28.8z"/>
		</g>
	</g>
	<g>
		<g class="st0">
			<path d="M150.7,25.7L151,6.6l7.6,0.1l-0.1,2.7L154,9.4l-0.1,5.3l3.2,0.1l0,2.5l-3.2-0.1l-0.1,5.8l4.6,0.1l-0.1,2.8L150.7,25.7z"
				/>
		</g>
		<g>
			<path class="st1" d="M150.7,26.4L151,7.4l7.6,0.1l-0.1,2.7l-4.6-0.1l-0.1,5.3l3.2,0.1l0,2.5l-3.2-0.1l-0.1,5.8l4.6,0.1l-0.1,2.8
				L150.7,26.4z"/>
		</g>
	</g>
	<g>
		<g class="st0">
			<path d="M157,34.5L136.5,35c-1.2,0-2.2-0.4-2.4-1l0,0c-0.1-0.6,0.7-1.1,1.9-1.1l20.5-0.4c1.2,0,2.2,0.4,2.4,1v0
				C159,34,158.2,34.5,157,34.5z"/>
		</g>
		<g>
			<path class="st1" d="M157,35.3l-20.5,0.4c-1.2,0-2.2-0.4-2.4-1v0c-0.1-0.6,0.7-1.1,1.9-1.1l20.5-0.4c1.2,0,2.2,0.4,2.4,1v0
				C159,34.7,158.2,35.2,157,35.3z"/>
		</g>
	</g>
</g>
<g id="Layer_2">
	<g>
		<g class="st0">
			<path d="M12.3,43.6c-5.1,0.6-9.4-2.5-10-7.6L0.1,16c-0.6-5.1,3-9.1,8-9.6c5-0.6,8.3,2.5,8.9,7.4l0.6,5.4l-6,0.7l-0.6-5.5
				c-0.1-1.1-0.8-1.8-2.1-1.7c-1.3,0.1-1.8,1-1.7,2.1l2.4,20.9c0.1,1.1,0.9,1.8,2.1,1.7c1.3-0.2,1.8-1,1.7-2.1l-0.6-5.6l6-0.7
				l0.6,5.5C19.9,39.3,17.2,43,12.3,43.6z"/>
		</g>
		<g>
			<path class="st1" d="M12.3,44.3c-5.1,0.6-9.4-2.5-10-7.6l-2.3-20c-0.6-5.1,3-9.1,8-9.6c5-0.6,8.3,2.5,8.9,7.4l0.6,5.4l-6,0.7
				l-0.6-5.5c-0.1-1.1-0.8-1.8-2.1-1.7c-1.3,0.1-1.8,1-1.7,2.1l2.4,20.9c0.1,1.1,0.9,1.8,2.1,1.7c1.3-0.2,1.8-1,1.7-2.1l-0.6-5.6
				l6-0.7l0.6,5.5C19.9,40,17.2,43.8,12.3,44.3z"/>
		</g>
	</g>
	<g>
		<g class="st0">
			<path d="M51.2,37.9l-4.1-13.2l-1.4-4.5l-0.1,17.7l-5.5,0l0.1-32.3l5.7,0l3.7,13.2l1.3,4.6L51,5.7l5.4,0l-0.1,32.3L51.2,37.9z"/>
		</g>
		<g>
			<path class="st1" d="M51.2,38.6l-4.1-13.2l-1.4-4.5l-0.1,17.7l-5.5,0l0.1-32.3l5.7,0l3.7,13.2l1.3,4.6L51,6.4l5.4,0l-0.1,32.3
				L51.2,38.6z"/>
		</g>
	</g>
	<g>
		<g class="st0">
			<path d="M69.8,35.3L65.9,24l-1.4-3.8L65,35.4l-4.7,0.2L59.4,7.8l4.9-0.2l3.6,11.3l1.3,3.9L68.7,7.5l4.7-0.2l0.9,27.7L69.8,35.3z"
				/>
		</g>
		<g>
			<path class="st1" d="M69.8,36l-3.9-11.3l-1.4-3.8L65,36.1l-4.7,0.2L59.4,8.6l4.9-0.2l3.6,11.3l1.3,3.9L68.7,8.2l4.7-0.2l0.9,27.7
				L69.8,36z"/>
		</g>
	</g>
	<g>
		<g class="st0">
			<path d="M77.1,35.5l1.3-32.9l13.4,0.5l-0.2,5.6l-7.1-0.3l-0.3,7.9l4.6,0.2l-0.2,5.1L84,21.4L83.7,30l7.1,0.3L90.5,36L77.1,35.5z"
				/>
		</g>
		<g>
			<path class="st1" d="M77.1,36.2l1.3-32.9l13.4,0.5l-0.2,5.6l-7.1-0.3L84.2,17l4.6,0.2l-0.2,5.1L84,22.1l-0.3,8.6l7.1,0.3
				l-0.2,5.8L77.1,36.2z"/>
		</g>
	</g>
	<g>
		<g class="st0">
			<path d="M102.6,37.9c-4.3,0.2-7.8-2.7-8-7.1l-0.7-17.2c-0.2-4.4,3.1-7.5,7.4-7.7c4.3-0.2,7,2.6,7.1,6.8l0.2,4.7l-5.2,0.2
				l-0.2-4.8c0-0.9-0.6-1.6-1.7-1.5c-1.1,0-1.6,0.8-1.6,1.7l0.8,17.9c0,0.9,0.6,1.6,1.7,1.5c1.2-0.1,1.6-0.8,1.6-1.7l-0.2-4.8
				l5.2-0.2l0.2,4.7C109.3,34.7,106.9,37.7,102.6,37.9z"/>
		</g>
		<g>
			<path class="st1" d="M102.6,38.6c-4.3,0.2-7.8-2.7-8-7.1l-0.7-17.2c-0.2-4.4,3.1-7.5,7.4-7.7c4.3-0.2,7,2.6,7.1,6.8l0.2,4.7
				l-5.2,0.2l-0.2-4.8c0-0.9-0.6-1.6-1.7-1.5c-1.1,0-1.6,0.8-1.6,1.7l0.8,17.9c0,0.9,0.6,1.6,1.7,1.5c1.2-0.1,1.6-0.8,1.6-1.7
				l-0.2-4.8l5.2-0.2l0.2,4.7C109.3,35.4,106.9,38.4,102.6,38.6z"/>
		</g>
	</g>
	<g>
		<g class="st0">
			<path d="M120.4,7.8l-1.2,29.7l-6.9-0.3l1.2-29.7l-5-0.2l0.3-6.3l16.9,0.7L125.4,8L120.4,7.8z"/>
		</g>
		<g>
			<path class="st1" d="M120.4,8.5l-1.2,29.7l-6.9-0.3l1.2-29.7l-5-0.2l0.3-6.3l16.9,0.7l-0.3,6.3L120.4,8.5z"/>
		</g>
	</g>
</g>
</svg>
