<?xml version="1.0" encoding="utf-8"?>
<!-- Generator: Adobe Illustrator 21.0.0, SVG Export Plug-In . SVG Version: 6.00 Build 0)  -->
<svg version="1.1" xmlns="http://www.w3.org/2000/svg" xmlns:xlink="http://www.w3.org/1999/xlink" x="0px" y="0px"
	 viewBox="0 0 159 40.4" style="enable-background:new 0 0 159 40.4;" xml:space="preserve">
<style type="text/css">
	.st0{opacity:0.1;}
	.st1{fill:#FFFFFF;}
	.st2{fill:#FFFFFF;stroke:#FFFFFF;stroke-miterlimit:10;}
	.st3{fill:none;stroke:#FFFFFF;stroke-linecap:round;stroke-miterlimit:10;}
</style>
<g id="Shadow">
	<g id="Isolation_Mode_1_" class="st0">
		<path d="M13.7,23.5c-1.6,1.6-3.8,2.2-5.7,2.3c-0.7,0-1.1,0.4-1.1,1.7l0.7,11.4c0.1,0.9-0.5,0.9-2.9,1S2,40.1,2,38.9L0,5.1
			c0-0.6,0-1,0.2-1.3c0.2-0.4,0.7-0.4,1.3-0.4l5.3-0.3C8.9,3,11,3.4,12.7,4.6c1.9,1.4,2.8,3.3,2.9,5.9l0.4,6.8
			C16.1,19.4,15.6,21.5,13.7,23.5 M10,11.9c-0.1-1.1-0.2-2.1-0.8-2.8C8.8,8.7,8.3,8.5,7.4,8.6C6.8,8.6,6.2,8.7,6,8.9
			C5.9,9.1,5.9,9.3,5.9,9.6l0.6,9.9c0,0.5,0,0.9,0.4,1.1c0.3,0,0.6,0,1.2,0s1.3-0.2,1.8-0.9c0.6-0.9,0.5-1.7,0.5-2.7L10,11.9z"/>
		<path d="M134.3,27.5c-4.8-0.2-7.4-3.6-7.3-7.8l0.4-8.7c0.2-4.5,3.6-7.3,7.9-7.2c4.5,0.2,7.5,3.2,7.3,7.8l-0.4,8.7
			C142,24.6,139.3,27.7,134.3,27.5 M136.9,12.4c0.1-1.5-0.3-3.2-1.9-3.2c-1.6-0.1-2.1,1.6-2.1,3.1v-0.1c-0.3,7.1-0.4,9.7,1.6,9.8
			C136.3,22,136.6,20.2,136.9,12.4L136.9,12.4z"/>
		<path d="M47.8,23.9c-1.8,1.4-4.1,1.6-6,1.4c-0.7-0.1-1.2,0.2-1.3,1.5l-1.1,11.4c-0.1,0.9-0.6,0.8-3,0.6c-2.3-0.2-2.7-0.3-2.5-1.4
			l3.2-33.7c0.1-0.6,0.2-1,0.4-1.3c0.3-0.3,0.7-0.2,1.3-0.2l5.3,0.5c2.1,0.2,4.1,0.9,5.6,2.4c1.6,1.6,2.2,3.7,2,6.3L51,18.2
			C50.8,20.3,50,22.3,47.8,23.9 M45.9,11.9C46,10.8,46,9.8,45.5,9c-0.4-0.5-0.8-0.7-1.7-0.8c-0.6-0.1-1.2-0.1-1.4,0.1
			S42.2,8.7,42.2,9l-0.9,9.9c0,0.5-0.1,0.9,0.2,1.1c0.3,0.1,0.6,0.1,1.1,0.2c0.6,0.1,1.3,0,2-0.7c0.8-0.8,0.8-1.6,0.9-2.6L45.9,11.9
			z"/>
		<path d="M134.1,35.1c-1.1,0.5-2.4,0-2.8-1.1c-0.5-1.1,0-2.4,1.1-2.8c1.1-0.5,2.4,0,2.8,1.1C135.7,33.4,135.2,34.7,134.1,35.1"/>
		<path d="M25.5,25c-4.8-0.2-7.4-3.6-7.3-7.8l0.4-8.7c0.2-4.5,3.6-7.3,7.9-7.2C31,1.5,34,4.5,33.8,9.1l-0.4,8.7
			C33.3,22.2,30.6,25.2,25.5,25 M28.2,9.9c0.1-1.5-0.3-3.2-1.9-3.2c-1.6-0.1-2.1,1.6-2.1,3.1V9.7c-0.3,7.1-0.4,9.7,1.6,9.8
			C27.6,19.6,27.8,17.8,28.2,9.9L28.2,9.9z"/>
		<path d="M25.3,32.7c-1.1,0.5-2.4,0-2.8-1.1c-0.5-1.1,0-2.4,1.1-2.8c1.1-0.5,2.4,0,2.8,1.1C26.9,30.9,26.4,32.2,25.3,32.7"/>
	</g>
	<g id="Layer_2_1_" class="st0">
		<g>
			<path d="M105.1,39.7L98,40.4L94.2,4.6l7.1-0.7c4-0.4,6.8,1.8,7.3,6.8l2.2,20.9C111.4,36.7,109.1,39.2,105.1,39.7z M103.9,11
				c-0.2-1.9-0.9-2.8-2.4-2.6l-2.1,0.2l2.8,26.9l2.1-0.2c1.5-0.2,2-1.1,1.8-3.1L103.9,11z"/>
			<path d="M123.1,34.9c-1.5,0-2.1-1.9-2.1-4.1v-7.4c0-1.1-0.6-1.9-1.6-1.9h-1.8v13.3h-4.1v-31h6.2c2.7,0,5.1,1.4,5.1,5.5v6.5
				c0,1.9-0.8,3.2-2.4,4c1.6,0.7,2.5,2.1,2.5,4v6.9c0,1.4,0.2,2.4,0.7,3.2v1.2h-2.5C123.1,35.1,123.1,34.9,123.1,34.9z M120.8,9.3
				c0-1.2-0.4-1.8-1.3-1.8h-2v10.4h1.8c1,0,1.5-0.6,1.5-1.9V9.3z"/>
			<path d="M153,23.4l-2.6,0.2l0.9,14.5l-4.7,0.3l-2.1-35.9l7.2-0.4c3.1-0.2,6,1.3,6.3,6.1l0.5,8.4C158.8,21.4,156.1,23.2,153,23.4z
				 M153.4,8.4c-0.1-1.4-0.6-2-1.6-2l-2.3,0.1l0.8,12.9l2.3-0.1c1-0.1,1.5-0.8,1.4-2.1L153.4,8.4z"/>
		</g>
		<g>
			<path d="M66.6,20.8l-0.5-3.3l-2,0.1l-0.2,3.3L61.8,21l1.4-17.4l2.5-0.1l3.2,17.2L66.6,20.8z M64.7,8l-0.4,7.5l1.5-0.1L64.7,8z"/>
			<path d="M74.5,20.2l-2.6-7.3l-0.8-2.3l0.5,9.8l-1.8,0.1L68.9,4.9l2-0.1l2.4,7.4l0.7,2.3l-0.5-9.8l1.8-0.1l0.8,15.6H74.5z"/>
			<path d="M81.4,20.9H78V3.6h3.4c2,0,3.2,1.2,3.2,3.6v10.1C84.6,19.7,83.3,20.9,81.4,20.9z M82.3,7.1c0-0.9-0.3-1.4-1-1.4h-1v13h1
				c0.7,0,1-0.4,1-1.4V7.1z"/>
		</g>
		<line x1="61.3" y1="23.7" x2="84.6" y2="23.7"/>
	</g>
</g>
<g id="Layer_1">
	<g id="Isolation_Mode_2_">
		<path class="st1" d="M13.7,22.2c-1.6,1.6-3.8,2.2-5.7,2.3c-0.7,0-1.1,0.4-1.1,1.7l0.7,11.4c0.1,0.9-0.5,0.9-2.9,1S2,38.8,2,37.6
			L0,3.8c0-0.6,0-1,0.2-1.3c0.2-0.4,0.7-0.4,1.3-0.4l5.3-0.3c2.1-0.1,4.2,0.3,5.9,1.5c1.9,1.4,2.8,3.3,2.9,5.9L16,16
			C16.1,18.1,15.6,20.2,13.7,22.2 M10,10.6C9.9,9.5,9.8,8.5,9.2,7.8C8.8,7.4,8.3,7.2,7.4,7.3C6.8,7.3,6.2,7.4,6,7.6
			C5.9,7.8,5.9,8,5.9,8.3l0.6,9.9c0,0.5,0,0.9,0.4,1.1c0.3,0,0.6,0,1.2,0s1.3-0.2,1.8-0.9c0.6-0.9,0.5-1.7,0.5-2.7L10,10.6z"/>
		<path class="st1" d="M134.3,26.2c-4.8-0.2-7.4-3.6-7.3-7.8l0.4-8.7c0.2-4.5,3.6-7.3,7.9-7.2c4.5,0.2,7.5,3.2,7.3,7.8l-0.4,8.7
			C142,23.3,139.3,26.4,134.3,26.2 M136.9,11.1c0.1-1.5-0.3-3.2-1.9-3.2c-1.6-0.1-2.1,1.6-2.1,3.1v-0.1c-0.3,7.1-0.4,9.7,1.6,9.8
			C136.3,20.7,136.6,18.9,136.9,11.1L136.9,11.1z"/>
		<path class="st1" d="M47.8,22.6c-1.8,1.4-4.1,1.6-6,1.4c-0.7-0.1-1.2,0.2-1.3,1.5l-1.1,11.4c-0.1,0.9-0.6,0.8-3,0.6
			c-2.3-0.2-2.7-0.3-2.5-1.4l3.2-33.7c0.1-0.6,0.2-1,0.4-1.3c0.3-0.3,0.7-0.2,1.3-0.2l5.3,0.5c2.1,0.2,4.1,0.9,5.6,2.4
			c1.6,1.6,2.2,3.7,2,6.3L51,16.9C50.8,19,50,21,47.8,22.6 M45.9,10.6C46,9.5,46,8.5,45.5,7.7c-0.4-0.5-0.8-0.7-1.7-0.8
			c-0.6-0.1-1.2-0.1-1.4,0.1s-0.2,0.4-0.2,0.7l-0.9,9.9c0,0.5-0.1,0.9,0.2,1.1c0.3,0.1,0.6,0.1,1.1,0.2c0.6,0.1,1.3,0,2-0.7
			c0.8-0.8,0.8-1.6,0.9-2.6L45.9,10.6z"/>
		<path class="st1" d="M134.1,33.8c-1.1,0.5-2.4,0-2.8-1.1c-0.5-1.1,0-2.4,1.1-2.8c1.1-0.5,2.4,0,2.8,1.1
			C135.7,32.1,135.2,33.4,134.1,33.8"/>
		<path class="st1" d="M25.5,23.7c-4.8-0.2-7.4-3.6-7.3-7.8l0.4-8.7c0.2-4.5,3.6-7.3,7.9-7.2C31,0.2,34,3.2,33.8,7.8l-0.4,8.7
			C33.3,20.9,30.6,23.9,25.5,23.7 M28.2,8.6c0.1-1.5-0.3-3.2-1.9-3.2c-1.6-0.1-2.1,1.6-2.1,3.1V8.4c-0.3,7.1-0.4,9.7,1.6,9.8
			C27.6,18.3,27.8,16.5,28.2,8.6L28.2,8.6z"/>
		<path class="st1" d="M25.3,31.4c-1.1,0.5-2.4,0-2.8-1.1c-0.5-1.1,0-2.4,1.1-2.8c1.1-0.5,2.4,0,2.8,1.1
			C26.9,29.6,26.4,30.9,25.3,31.4"/>
	</g>
	<g id="Layer_2_2_">
		<g>
			<path class="st2" d="M105.1,38.4L98,39.1L94.2,3.3l7.1-0.7c4-0.4,6.8,1.8,7.3,6.8l2.2,20.9C111.4,35.4,109.1,37.9,105.1,38.4z
				 M103.9,9.7c-0.2-1.9-0.9-2.8-2.4-2.6l-2.1,0.2l2.8,26.9l2.1-0.2c1.5-0.2,2-1.1,1.8-3.1L103.9,9.7z"/>
			<path class="st2" d="M123.1,33.6c-1.5,0-2.1-1.9-2.1-4.1v-7.4c0-1.1-0.6-1.9-1.6-1.9h-1.8v13.3h-4.1v-31h6.2
				c2.7,0,5.1,1.4,5.1,5.5v6.5c0,1.9-0.8,3.2-2.4,4c1.6,0.7,2.5,2.1,2.5,4v6.9c0,1.4,0.2,2.4,0.7,3.2v1.2h-2.5
				C123.1,33.8,123.1,33.6,123.1,33.6z M120.8,8c0-1.2-0.4-1.8-1.3-1.8h-2v10.4h1.8c1,0,1.5-0.6,1.5-1.9V8z"/>
			<path class="st2" d="M153,22.1l-2.6,0.2l0.9,14.5l-4.7,0.3l-2.1-35.9l7.2-0.4c3.1-0.2,6,1.3,6.3,6.1l0.5,8.4
				C158.8,20.1,156.1,21.9,153,22.1z M153.4,7.1c-0.1-1.4-0.6-2-1.6-2l-2.3,0.1l0.8,12.9l2.3-0.1c1-0.1,1.5-0.8,1.4-2.1L153.4,7.1z"
				/>
		</g>
		<g>
			<path class="st1" d="M66.6,19.5l-0.5-3.3l-2,0.1l-0.2,3.3l-2.1,0.1l1.4-17.4l2.5-0.1l3.2,17.2L66.6,19.5z M64.7,6.7l-0.4,7.5
				l1.5-0.1L64.7,6.7z"/>
			<path class="st1" d="M74.5,18.9l-2.6-7.3l-0.8-2.3l0.5,9.8l-1.8,0.1L68.9,3.6l2-0.1l2.4,7.4l0.7,2.3l-0.5-9.8l1.8-0.1l0.8,15.6
				H74.5z"/>
			<path class="st1" d="M81.4,19.6H78V2.3h3.4c2,0,3.2,1.2,3.2,3.6V16C84.6,18.4,83.3,19.6,81.4,19.6z M82.3,5.8
				c0-0.9-0.3-1.4-1-1.4h-1v13h1c0.7,0,1-0.4,1-1.4V5.8z"/>
		</g>
		<line class="st3" x1="61.3" y1="22.4" x2="84.6" y2="22.4"/>
	</g>
</g>
</svg>
