<?xml version="1.0" encoding="utf-8"?>
<!-- Generator: Adobe Illustrator 21.0.0, SVG Export Plug-In . SVG Version: 6.00 Build 0)  -->
<svg version="1.1" id="Layer_1" xmlns="http://www.w3.org/2000/svg" xmlns:xlink="http://www.w3.org/1999/xlink" x="0px" y="0px"
	 viewBox="0 0 307.2 53.6" style="enable-background:new 0 0 307.2 53.6;" xml:space="preserve">
<style type="text/css">
	.st0{fill:#FFFFFF;}
	.st1{font-family:'Knockout-HTF48-Featherweight';}
	.st2{font-size:35.0461px;}
</style>
<g>
	<path class="st0" d="M135,31c-1.9,2-4.6,2.7-7,2.9c-0.9,0.1-1.4,0.5-1.2,2.1l1.1,13.9c0.1,1.1-0.6,1.1-3.5,1.3
		c-2.9,0.2-3.3,0.3-3.4-1.1l-3.3-41.3c-0.1-0.8,0-1.3,0.2-1.6c0.3-0.5,0.8-0.4,1.6-0.5l6.5-0.5c2.6-0.2,5.2,0.2,7.2,1.7
		c2.3,1.6,3.5,4,3.7,7.2l0.7,8.4C137.8,25.9,137.2,28.6,135,31 M130.1,16.8c-0.1-1.3-0.3-2.5-1.1-3.4c-0.6-0.5-1.1-0.7-2.2-0.6
		c-0.8,0.1-1.5,0.1-1.7,0.4c-0.2,0.3-0.2,0.5-0.1,0.9l1,12.1c0,0.6,0,1.2,0.5,1.3c0.3,0,0.8,0,1.4,0c0.7-0.1,1.6-0.3,2.2-1.2
		c0.7-1.2,0.6-2.1,0.5-3.3L130.1,16.8z"/>
	<path class="st0" d="M150.8,35.2c-5.9-0.1-9.2-4.2-9.1-9.4l0.2-10.7c0.1-5.6,4.2-9.1,9.5-8.9c5.5,0.1,9.3,3.8,9.1,9.4l-0.2,10.7
		C160.2,31.6,157,35.4,150.8,35.2 M153.6,16.7c0-1.8-0.5-3.9-2.3-3.9c-1.9,0-2.5,2-2.5,3.8l0-0.1c-0.2,8.6-0.2,11.9,2.2,12
		C153.2,28.5,153.4,26.3,153.6,16.7L153.6,16.7z"/>
	<path class="st0" d="M179.5,26.5c-2.2,1.7-5,2-7.3,1.8c-0.9-0.1-1.4,0.3-1.6,1.9l-1,13.9c-0.1,1.1-0.7,1-3.7,0.8
		c-2.9-0.2-3.3-0.2-3.1-1.6l3.1-41.3c0.1-0.8,0.2-1.3,0.4-1.6c0.4-0.4,0.9-0.3,1.6-0.3l6.5,0.5c2.6,0.2,5.1,1,6.9,2.8
		c2,1.9,2.8,4.4,2.6,7.6l-0.6,8.4C183,21.9,182.1,24.4,179.5,26.5 M176.9,11.8c0.1-1.3,0.1-2.6-0.6-3.6c-0.5-0.5-1-0.8-2-0.9
		c-0.8-0.1-1.5-0.1-1.7,0.1c-0.2,0.2-0.2,0.5-0.3,0.9l-0.9,12.1c0,0.6-0.2,1.1,0.3,1.4c0.3,0.1,0.8,0.1,1.4,0.2
		c0.7,0.1,1.6-0.1,2.4-0.8c0.9-1,0.9-2,1-3.2L176.9,11.8z"/>
	<path class="st0" d="M200.5,28.7c-2.2,1.7-5,2-7.3,1.9c-0.9-0.1-1.4,0.3-1.5,1.9l-1,13.9c-0.1,1.1-0.7,1-3.6,0.8
		c-2.9-0.2-3.3-0.2-3.2-1.6l2.8-41.3c0.1-0.8,0.2-1.3,0.4-1.6c0.4-0.4,0.9-0.3,1.6-0.3l6.5,0.4c2.6,0.2,5.1,1,6.9,2.7
		c2,1.9,2.8,4.4,2.6,7.6l-0.6,8.4C204.1,24.2,203.1,26.7,200.5,28.7 M197.8,14.1c0.1-1.3,0.1-2.6-0.6-3.6c-0.5-0.5-1-0.8-2.1-0.9
		c-0.8-0.1-1.5-0.1-1.7,0.1c-0.2,0.2-0.2,0.5-0.3,0.9l-0.8,12.1c0,0.6-0.1,1.1,0.3,1.4c0.3,0.1,0.8,0.1,1.4,0.2
		c0.7,0,1.6-0.1,2.4-0.9c0.9-1,0.9-2,1-3.2L197.8,14.1z"/>
	<path class="st0" d="M220.2,48.8c-1.8-0.2-3.1-0.2-3.1-1.1c-0.2-3.6-0.2-6.1-0.4-9.6c0-0.6-0.8-0.6-1.8-0.7c-1.2-0.1-1.8-0.3-2,0.3
		c-0.7,3.5-1.2,5.9-1.8,9.5c-0.1,0.7-1.5,0.5-3.6,0.3c-1-0.1-3.2-0.3-3.1-0.9c3.9-16.4,6.5-27.4,10-42.6c0.2-0.9,2-0.8,3.4-0.7
		c1.6,0.1,3.3,0.4,3.3,1.5c1,16.5,1.5,26.6,2.5,43.5C223.9,49.2,221.9,49,220.2,48.8 M217,19.9c0-0.3,0-1.7-0.4-1.8
		c-0.3,0-0.6,1.6-0.6,1.8c-0.8,4.9-1.3,8.1-1.9,12.2c-0.1,0.4,0.3,0.5,1.2,0.6c0.8,0.1,1.5,0.3,1.4-0.3
		C216.8,27.6,216.9,24.9,217,19.9"/>
	<path class="st0" d="M244.1,46.1c-2,2.2-5,2.9-7.5,2.9c-1.9,0-4.7,0.1-6.2,0c-0.9-0.1-1.7,0.1-1.9-0.3c-0.3-0.4-0.4-0.6-0.4-1.9
		L228,6.2c0-0.8,0-1.3,0.4-1.7c0.4-0.4,0.8-0.3,1.5-0.3l6.3,0c2.8,0,5.7,0.8,7.6,2.7c1.8,1.8,2.5,4.3,2.5,7l0,5.4
		c0,2-0.4,3.2-1.2,4.4c-1.1,1.5-2.9,1.8-2.9,2.1c0,0.2,2.1,0.4,3.4,2.2c0.8,1.2,1,2.2,1,4l0,7.4C246.7,41.6,246.2,43.9,244.1,46.1
		 M239.5,15.2c0-1.3-0.1-2.6-0.9-3.5c-0.4-0.5-0.9-0.8-2-0.8c-0.8,0-1.3,0-1.5,0.3c-0.2,0.3-0.3,0.5-0.3,0.9l0,9.5
		c0,0.6,0,1,0.3,1.2c0.3,0.3,0.6,0.2,1.2,0.2c0.7,0,1.6-0.2,2.3-1c0.8-0.9,0.9-1.8,0.9-2.5L239.5,15.2z M239.8,33.2
		c0-2.4-0.8-4-2.6-4c-2,0-2.3,0.1-2.3,1.2l0,10.5c0,0.6,0,1.3,0.5,1.3c0.3,0.1,0.6,0.1,1.3,0.1c0.6,0,1.6-0.1,2.3-0.9
		c0.8-0.8,0.9-1.7,0.9-2.8L239.8,33.2z"/>
	<path class="st0" d="M264.1,51.3c-3.1-0.2-10.5-0.8-12.3-0.9c-0.9-0.1-1.8-0.1-2.1-0.5c-0.4-0.5-0.2-1.4-0.2-2.3
		c1.1-15.3,1.9-25.7,3-41c0.1-0.9,0.4-1,3.3-0.8c3.3,0.2,3.6,0.3,3.6,1.3c-1,13.7-1.8,25.3-2.5,34.8c-0.1,0.8-0.2,1.9,0.2,2.3
		c0.3,0.2,1.1,0.3,1.7,0.4c1.4,0.1,4.3,0.3,5.7,0.4c0.8,0.1,0.9,0.4,0.7,3.1C264.9,51.2,264.9,51.4,264.1,51.3"/>
	<path class="st0" d="M283.1,50.6c-2.5,0.1-8.5,0.3-11,0.4c-0.9,0-1.9,0.2-2.3-0.1c-0.5-0.4-0.4-1.2-0.4-1.9
		c-0.5-13.7-0.8-22.4-1.3-36.1c0-0.7,0-0.8,0.4-1.3c0.3-0.5,0.7-0.5,1.3-0.5c3.1-0.1,8.7-0.3,11.8-0.4c0.7,0,0.7,0.4,0.8,2.7
		c0.1,2.6,0.1,2.9-0.6,2.9c-1.5,0.1-4.6,0.2-5.7,0.2c-0.5,0-1.1,0.1-1.3,0.3c-0.3,0.4-0.3,0.4-0.2,1.1c0.1,3.8,0.1,3.7,0.3,7.5
		c0,0.5-0.1,1.1,0.4,1.5c0.4,0.3,0.8,0.2,1.3,0.2c1,0,2.2-0.1,2.7-0.1c0.7,0,0.8,0.3,0.8,2.8c0.1,2.4,0.1,2.7-0.6,2.8
		c-0.5,0-1.5,0.1-2.6,0.1c-0.6,0-1.2,0.1-1.4,0.2c-0.5,0.4-0.4,0.9-0.3,1.7c0.2,4.6,0.1,3.9,0.3,8.5c0,0.7,0.1,1.8,0.4,2
		c0.3,0.2,1.1,0.2,1.7,0.2c1.5-0.1,3.9-0.1,5.4-0.2c0.7,0,0.8,0.2,0.8,2.7C283.8,50.3,283.7,50.6,283.1,50.6"/>
	<path class="st0" d="M304.9,47.5c-2.2,3.4-3.7,4.6-7.9,4.3c-4.8-0.3-8.3-3.5-7.9-8.8c0-0.6,0.2-2.5,0.2-3.3c0-0.5,0.6-0.5,2.9-0.4
		c2.3,0.2,3.5,0.3,3.4,0.7c-0.1,0.8-0.1,1.9-0.2,2.5c-0.2,2.2,0.2,3.5,1.9,3.6c1.6,0.1,2.1-1,2.3-2c0.1-1,0.3-1.9,0.3-2.7
		c0.4-5.1-10.2-13-9.5-21.8c0.1-1.6,1-4.3,1.9-5.6c0.9-1.3,3.1-3.6,7.1-3.3c5,0.4,8,4.3,7.7,8.6c-0.1,0.9-0.1,1.9-0.2,2.9
		c0,0.4-0.8,0.3-2.8,0.1c-2.2-0.2-3.4-0.2-3.4-0.7c0.1-0.8,0.2-2.2,0.2-2.7c0.1-1.6-0.9-2.7-1.9-2.8c-1.1-0.1-1.9,0.8-2.1,1.7
		c-0.2,0.9-0.3,1.6-0.3,2.3c-0.5,6.9,10.3,12.5,9.6,22C306.1,44.1,305.7,46.3,304.9,47.5"/>
	<path class="st0" d="M150.7,44.6c-1.3,0.6-2.9,0-3.5-1.3c-0.6-1.3,0-2.9,1.3-3.5c1.3-0.6,2.9,0,3.5,1.3
		C152.6,42.4,152,44,150.7,44.6"/>
	<path class="st0" d="M16.8,33.5c-1.9,2-4.6,2.7-7,2.8c-0.9,0.1-1.4,0.5-1.3,2.1l0.8,13.9c0.1,1.1-0.6,1.1-3.5,1.2
		c-2.9,0.2-3.3,0.2-3.3-1.2L0,10.9c0-0.8,0-1.3,0.2-1.6C0.5,8.9,1,8.9,1.8,8.8l6.5-0.4c2.6-0.2,5.1,0.3,7.2,1.8
		c2.3,1.7,3.4,4,3.6,7.2l0.5,8.4C19.7,28.5,19.1,31.1,16.8,33.5 M12.2,19.2c-0.1-1.3-0.2-2.6-1-3.5c-0.5-0.5-1.1-0.7-2.2-0.6
		c-0.8,0-1.5,0.1-1.7,0.4c-0.2,0.3-0.2,0.5-0.1,0.9l0.7,12.1c0,0.6,0,1.2,0.5,1.3c0.3,0,0.8,0,1.4,0c0.7,0,1.6-0.3,2.2-1.2
		c0.8-1.1,0.6-2.1,0.6-3.3L12.2,19.2z"/>
	<path class="st0" d="M33.1,38.2c-5.9,0.4-9.5-3.3-9.9-8.5L22.3,19c-0.4-5.6,3.3-9.4,8.6-9.8c5.5-0.4,9.6,2.9,10,8.4l0.8,10.6
		C42.1,33.7,39.2,37.7,33.1,38.2 M34.1,19.5c-0.1-1.8-0.9-3.8-2.7-3.6c-1.9,0.1-2.3,2.2-2.1,4l0-0.1c0.6,8.6,0.9,11.9,3.3,11.7
		C34.8,31.3,34.8,29.1,34.1,19.5L34.1,19.5z"/>
	<path class="st0" d="M61.3,31.1c-2.1,1.8-4.9,2.2-7.3,2.1c-0.9,0-1.4,0.3-1.5,1.9L51.9,49c0,1.1-0.7,1-3.6,0.9
		c-2.9-0.1-3.3-0.1-3.2-1.5l1.8-41.4c0-0.8,0.1-1.3,0.4-1.6C47.6,4.9,48.1,5,48.9,5l6.5,0.3c2.6,0.1,5.1,0.9,6.9,2.5
		c2.1,1.9,3,4.4,2.8,7.6l-0.4,8.4C64.7,26.4,63.8,28.9,61.3,31.1 M58.2,16.5c0.1-1.3,0-2.6-0.7-3.6c-0.5-0.5-1.1-0.8-2.1-0.9
		c-0.8,0-1.5-0.1-1.7,0.2c-0.2,0.2-0.2,0.5-0.2,0.9l-0.5,12.1c0,0.6-0.1,1.1,0.3,1.4c0.3,0.1,0.8,0.1,1.4,0.1c0.7,0,1.6-0.1,2.3-0.9
		c0.9-1.1,0.9-2,0.9-3.2L58.2,16.5z"/>
	<path class="st0" d="M33.9,47.5c-1.3,0.7-2.9,0.3-3.6-1c-0.7-1.3-0.3-2.9,1-3.6c1.3-0.7,2.9-0.3,3.6,1
		C35.6,45.2,35.2,46.8,33.9,47.5"/>
</g>
<text transform="matrix(0.9982 -6.026000e-02 6.026000e-02 0.9982 74.6289 33.68)" class="st0 st1 st2">T</text>
<text transform="matrix(0.9979 -6.562000e-02 6.562000e-02 0.9979 83.6318 38.586)" class="st0 st1 st2">H</text>
<text transform="matrix(1 -8.200000e-04 8.200000e-04 1 96.4018 33.7335)" class="st0 st1 st2">E</text>
<path class="st0" d="M106.1,45.2l-25,1.8c-1.4,0.1-2.8-0.4-3-1.1v0c-0.2-0.7,0.8-1.4,2.2-1.5l25-1.8c1.4-0.1,2.8,0.4,3,1.1v0
	C108.5,44.5,107.5,45.1,106.1,45.2z"/>
</svg>
