<?xml version="1.0" encoding="utf-8"?>
<!-- Generator: Adobe Illustrator 21.0.0, SVG Export Plug-In . SVG Version: 6.00 Build 0)  -->
<svg version="1.1" id="Layer_1" xmlns="http://www.w3.org/2000/svg" xmlns:xlink="http://www.w3.org/1999/xlink" x="0px" y="0px"
	 viewBox="0 0 307.4 54.8" style="enable-background:new 0 0 307.4 54.8;" xml:space="preserve">
<style type="text/css">
	.st0{opacity:0.75;}
	.st1{opacity:0.1;}
	.st2{fill:#FFFFFF;}
	.st3{enable-background:new    ;}
</style>
<g>
	<g class="st0">
		<path class="st1" d="M135.3,32.2c-1.9,2-4.6,2.7-7,2.9c-0.9,0.1-1.4,0.5-1.2,2.1l1.1,13.9c0.1,1.1-0.6,1.1-3.5,1.3
			s-3.3,0.3-3.4-1.1L118,10c-0.1-0.8,0-1.3,0.2-1.6c0.3-0.5,0.8-0.4,1.6-0.5l6.5-0.5c2.6-0.2,5.2,0.2,7.2,1.7c2.3,1.6,3.5,4,3.7,7.2
			l0.7,8.4C138.1,27.1,137.5,29.8,135.3,32.2 M130.4,18c-0.1-1.3-0.3-2.5-1.1-3.4c-0.6-0.5-1.1-0.7-2.2-0.6
			c-0.8,0.1-1.5,0.1-1.7,0.4c-0.2,0.3-0.2,0.5-0.1,0.9l1,12.1c0,0.6,0,1.2,0.5,1.3c0.3,0,0.8,0,1.4,0c0.7-0.1,1.6-0.3,2.2-1.2
			c0.7-1.2,0.6-2.1,0.5-3.3L130.4,18z"/>
		<path class="st1" d="M151.1,36.4c-5.9-0.1-9.2-4.2-9.1-9.4l0.2-10.7c0.1-5.6,4.2-9.1,9.5-8.9c5.5,0.1,9.3,3.8,9.1,9.4l-0.2,10.7
			C160.5,32.8,157.3,36.6,151.1,36.4 M153.9,17.9c0-1.8-0.5-3.9-2.3-3.9c-1.9,0-2.5,2-2.5,3.8v-0.1c-0.2,8.6-0.2,11.9,2.2,12
			C153.5,29.7,153.7,27.5,153.9,17.9L153.9,17.9z"/>
		<path class="st1" d="M179.8,27.7c-2.2,1.7-5,2-7.3,1.8c-0.9-0.1-1.4,0.3-1.6,1.9l-1,13.9c-0.1,1.1-0.7,1-3.7,0.8
			c-2.9-0.2-3.3-0.2-3.1-1.6l3.1-41.3c0.1-0.8,0.2-1.3,0.4-1.6c0.4-0.4,0.9-0.3,1.6-0.3l6.5,0.5c2.6,0.2,5.1,1,6.9,2.8
			c2,1.9,2.8,4.4,2.6,7.6l-0.6,8.4C183.3,23.1,182.4,25.6,179.8,27.7 M177.2,13c0.1-1.3,0.1-2.6-0.6-3.6c-0.5-0.5-1-0.8-2-0.9
			c-0.8-0.1-1.5-0.1-1.7,0.1s-0.2,0.5-0.3,0.9l-0.9,12.1c0,0.6-0.2,1.1,0.3,1.4c0.3,0.1,0.8,0.1,1.4,0.2c0.7,0.1,1.6-0.1,2.4-0.8
			c0.9-1,0.9-2,1-3.2L177.2,13z"/>
		<path class="st1" d="M200.8,29.9c-2.2,1.7-5,2-7.3,1.9c-0.9-0.1-1.4,0.3-1.5,1.9l-1,13.9c-0.1,1.1-0.7,1-3.6,0.8
			c-2.9-0.2-3.3-0.2-3.2-1.6L187,5.5c0.1-0.8,0.2-1.3,0.4-1.6c0.4-0.4,0.9-0.3,1.6-0.3l6.5,0.4c2.6,0.2,5.1,1,6.9,2.7
			c2,1.9,2.8,4.4,2.6,7.6l-0.6,8.4C204.4,25.4,203.4,27.9,200.8,29.9 M198.1,15.3c0.1-1.3,0.1-2.6-0.6-3.6c-0.5-0.5-1-0.8-2.1-0.9
			c-0.8-0.1-1.5-0.1-1.7,0.1c-0.2,0.2-0.2,0.5-0.3,0.9l-0.8,12.1c0,0.6-0.1,1.1,0.3,1.4c0.3,0.1,0.8,0.1,1.4,0.2
			c0.7,0,1.6-0.1,2.4-0.9c0.9-1,0.9-2,1-3.2L198.1,15.3z"/>
		<path class="st1" d="M220.5,50c-1.8-0.2-3.1-0.2-3.1-1.1c-0.2-3.6-0.2-6.1-0.4-9.6c0-0.6-0.8-0.6-1.8-0.7c-1.2-0.1-1.8-0.3-2,0.3
			c-0.7,3.5-1.2,5.9-1.8,9.5c-0.1,0.7-1.5,0.5-3.6,0.3c-1-0.1-3.2-0.3-3.1-0.9c3.9-16.4,6.5-27.4,10-42.6c0.2-0.9,2-0.8,3.4-0.7
			c1.6,0.1,3.3,0.4,3.3,1.5c1,16.5,1.5,26.6,2.5,43.5C224.2,50.4,222.2,50.2,220.5,50 M217.3,21.1c0-0.3,0-1.7-0.4-1.8
			c-0.3,0-0.6,1.6-0.6,1.8c-0.8,4.9-1.3,8.1-1.9,12.2c-0.1,0.4,0.3,0.5,1.2,0.6c0.8,0.1,1.5,0.3,1.4-0.3
			C217.1,28.8,217.2,26.1,217.3,21.1"/>
		<path class="st1" d="M244.4,47.3c-2,2.2-5,2.9-7.5,2.9c-1.9,0-4.7,0.1-6.2,0c-0.9-0.1-1.7,0.1-1.9-0.3c-0.3-0.4-0.4-0.6-0.4-1.9
			l-0.1-40.6c0-0.8,0-1.3,0.4-1.7c0.4-0.4,0.8-0.3,1.5-0.3h6.3c2.8,0,5.7,0.8,7.6,2.7c1.8,1.8,2.5,4.3,2.5,7v5.4
			c0,2-0.4,3.2-1.2,4.4c-1.1,1.5-2.9,1.8-2.9,2.1c0,0.2,2.1,0.4,3.4,2.2c0.8,1.2,1,2.2,1,4v7.4C247,42.8,246.5,45.1,244.4,47.3
			 M239.8,16.4c0-1.3-0.1-2.6-0.9-3.5c-0.4-0.5-0.9-0.8-2-0.8c-0.8,0-1.3,0-1.5,0.3s-0.3,0.5-0.3,0.9v9.5c0,0.6,0,1,0.3,1.2
			c0.3,0.3,0.6,0.2,1.2,0.2c0.7,0,1.6-0.2,2.3-1c0.8-0.9,0.9-1.8,0.9-2.5V16.4z M240.1,34.4c0-2.4-0.8-4-2.6-4c-2,0-2.3,0.1-2.3,1.2
			v10.5c0,0.6,0,1.3,0.5,1.3c0.3,0.1,0.6,0.1,1.3,0.1c0.6,0,1.6-0.1,2.3-0.9c0.8-0.8,0.9-1.7,0.9-2.8L240.1,34.4z"/>
		<path class="st1" d="M264.4,52.5c-3.1-0.2-10.5-0.8-12.3-0.9c-0.9-0.1-1.8-0.1-2.1-0.5c-0.4-0.5-0.2-1.4-0.2-2.3
			c1.1-15.3,1.9-25.7,3-41c0.1-0.9,0.4-1,3.3-0.8c3.3,0.2,3.6,0.3,3.6,1.3c-1,13.7-1.8,25.3-2.5,34.8c-0.1,0.8-0.2,1.9,0.2,2.3
			c0.3,0.2,1.1,0.3,1.7,0.4c1.4,0.1,4.3,0.3,5.7,0.4c0.8,0.1,0.9,0.4,0.7,3.1C265.2,52.4,265.2,52.6,264.4,52.5"/>
		<path class="st1" d="M283.4,51.8c-2.5,0.1-8.5,0.3-11,0.4c-0.9,0-1.9,0.2-2.3-0.1c-0.5-0.4-0.4-1.2-0.4-1.9
			c-0.5-13.7-0.8-22.4-1.3-36.1c0-0.7,0-0.8,0.4-1.3c0.3-0.5,0.7-0.5,1.3-0.5c3.1-0.1,8.7-0.3,11.8-0.4c0.7,0,0.7,0.4,0.8,2.7
			c0.1,2.6,0.1,2.9-0.6,2.9c-1.5,0.1-4.6,0.2-5.7,0.2c-0.5,0-1.1,0.1-1.3,0.3c-0.3,0.4-0.3,0.4-0.2,1.1c0.1,3.8,0.1,3.7,0.3,7.5
			c0,0.5-0.1,1.1,0.4,1.5c0.4,0.3,0.8,0.2,1.3,0.2c1,0,2.2-0.1,2.7-0.1c0.7,0,0.8,0.3,0.8,2.8c0.1,2.4,0.1,2.7-0.6,2.8
			c-0.5,0-1.5,0.1-2.6,0.1c-0.6,0-1.2,0.1-1.4,0.2c-0.5,0.4-0.4,0.9-0.3,1.7c0.2,4.6,0.1,3.9,0.3,8.5c0,0.7,0.1,1.8,0.4,2
			s1.1,0.2,1.7,0.2c1.5-0.1,3.9-0.1,5.4-0.2c0.7,0,0.8,0.2,0.8,2.7C284.1,51.5,284,51.8,283.4,51.8"/>
		<path class="st1" d="M305.2,48.7c-2.2,3.4-3.7,4.6-7.9,4.3c-4.8-0.3-8.3-3.5-7.9-8.8c0-0.6,0.2-2.5,0.2-3.3c0-0.5,0.6-0.5,2.9-0.4
			c2.3,0.2,3.5,0.3,3.4,0.7c-0.1,0.8-0.1,1.9-0.2,2.5c-0.2,2.2,0.2,3.5,1.9,3.6c1.6,0.1,2.1-1,2.3-2c0.1-1,0.3-1.9,0.3-2.7
			c0.4-5.1-10.2-13-9.5-21.8c0.1-1.6,1-4.3,1.9-5.6s3.1-3.6,7.1-3.3c5,0.4,8,4.3,7.7,8.6c-0.1,0.9-0.1,1.9-0.2,2.9
			c0,0.4-0.8,0.3-2.8,0.1c-2.2-0.2-3.4-0.2-3.4-0.7c0.1-0.8,0.2-2.2,0.2-2.7c0.1-1.6-0.9-2.7-1.9-2.8c-1.1-0.1-1.9,0.8-2.1,1.7
			s-0.3,1.6-0.3,2.3c-0.5,6.9,10.3,12.5,9.6,22C306.4,45.3,306,47.5,305.2,48.7"/>
		<path class="st1" d="M151,45.8c-1.3,0.6-2.9,0-3.5-1.3s0-2.9,1.3-3.5s2.9,0,3.5,1.3C152.9,43.6,152.3,45.2,151,45.8"/>
		<path class="st1" d="M17.1,34.7c-1.9,2-4.6,2.7-7,2.8c-0.9,0.1-1.4,0.5-1.3,2.1l0.8,13.9c0.1,1.1-0.6,1.1-3.5,1.2
			c-2.9,0.2-3.3,0.2-3.3-1.2L0.3,12.1c0-0.8,0-1.3,0.2-1.6c0.3-0.4,0.8-0.4,1.6-0.5l6.5-0.4c2.6-0.2,5.1,0.3,7.2,1.8
			c2.3,1.7,3.4,4,3.6,7.2l0.5,8.4C20,29.7,19.4,32.3,17.1,34.7 M12.5,20.4c-0.1-1.3-0.2-2.6-1-3.5c-0.5-0.5-1.1-0.7-2.2-0.6
			c-0.8,0-1.5,0.1-1.7,0.4s-0.2,0.5-0.1,0.9l0.7,12.1c0,0.6,0,1.2,0.5,1.3c0.3,0,0.8,0,1.4,0c0.7,0,1.6-0.3,2.2-1.2
			c0.8-1.1,0.6-2.1,0.6-3.3L12.5,20.4z"/>
		<path class="st1" d="M33.4,39.4c-5.9,0.4-9.5-3.3-9.9-8.5l-0.9-10.7c-0.4-5.6,3.3-9.4,8.6-9.8c5.5-0.4,9.6,2.9,10,8.4L42,29.4
			C42.4,34.9,39.5,38.9,33.4,39.4 M34.4,20.7c-0.1-1.8-0.9-3.8-2.7-3.6c-1.9,0.1-2.3,2.2-2.1,4V21c0.6,8.6,0.9,11.9,3.3,11.7
			C35.1,32.5,35.1,30.3,34.4,20.7L34.4,20.7z"/>
		<path class="st1" d="M61.6,32.3c-2.1,1.8-4.9,2.2-7.3,2.1c-0.9,0-1.4,0.3-1.5,1.9l-0.6,13.9c0,1.1-0.7,1-3.6,0.9
			c-2.9-0.1-3.3-0.1-3.2-1.5l1.8-41.4c0-0.8,0.1-1.3,0.4-1.6c0.3-0.5,0.8-0.4,1.6-0.4l6.5,0.3c2.6,0.1,5.1,0.9,6.9,2.5
			c2.1,1.9,3,4.4,2.8,7.6L65,25C65,27.6,64.1,30.1,61.6,32.3 M58.5,17.7c0.1-1.3,0-2.6-0.7-3.6c-0.5-0.5-1.1-0.8-2.1-0.9
			c-0.8,0-1.5-0.1-1.7,0.2c-0.2,0.2-0.2,0.5-0.2,0.9l-0.5,12.1c0,0.6-0.1,1.1,0.3,1.4c0.3,0.1,0.8,0.1,1.4,0.1
			c0.7,0,1.6-0.1,2.3-0.9c0.9-1.1,0.9-2,0.9-3.2L58.5,17.7z"/>
		<path class="st1" d="M34.2,48.7c-1.3,0.7-2.9,0.3-3.6-1s-0.3-2.9,1-3.6c1.3-0.7,2.9-0.3,3.6,1S35.5,48,34.2,48.7"/>
	</g>
	<g>
		<path class="st2" d="M135,30.9c-1.9,2-4.6,2.7-7,2.9c-0.9,0.1-1.4,0.5-1.2,2.1l1.1,13.9c0.1,1.1-0.6,1.1-3.5,1.3s-3.3,0.3-3.4-1.1
			l-3.3-41.3c-0.1-0.8,0-1.3,0.2-1.6c0.3-0.5,0.8-0.4,1.6-0.5l6.5-0.5c2.6-0.2,5.2,0.2,7.2,1.7c2.3,1.6,3.5,4,3.7,7.2l0.7,8.4
			C137.8,25.8,137.2,28.5,135,30.9 M130.1,16.7c-0.1-1.3-0.3-2.5-1.1-3.4c-0.6-0.5-1.1-0.7-2.2-0.6c-0.8,0.1-1.5,0.1-1.7,0.4
			c-0.2,0.3-0.2,0.5-0.1,0.9l1,12.1c0,0.6,0,1.2,0.5,1.3c0.3,0,0.8,0,1.4,0c0.7-0.1,1.6-0.3,2.2-1.2c0.7-1.2,0.6-2.1,0.5-3.3
			L130.1,16.7z"/>
		<path class="st2" d="M150.8,35.1c-5.9-0.1-9.2-4.2-9.1-9.4l0.2-10.7c0.1-5.6,4.2-9.1,9.5-8.9c5.5,0.1,9.3,3.8,9.1,9.4l-0.2,10.7
			C160.2,31.5,157,35.3,150.8,35.1 M153.6,16.6c0-1.8-0.5-3.9-2.3-3.9c-1.9,0-2.5,2-2.5,3.8v-0.1c-0.2,8.6-0.2,11.9,2.2,12
			C153.2,28.4,153.4,26.2,153.6,16.6L153.6,16.6z"/>
		<path class="st2" d="M179.5,26.4c-2.2,1.7-5,2-7.3,1.8c-0.9-0.1-1.4,0.3-1.6,1.9l-1,13.9c-0.1,1.1-0.7,1-3.7,0.8
			c-2.9-0.2-3.3-0.2-3.1-1.6l3.1-41.3c0.1-0.8,0.2-1.3,0.4-1.6c0.4-0.4,0.9-0.3,1.6-0.3l6.5,0.5c2.6,0.2,5.1,1,6.9,2.8
			c2,1.9,2.8,4.4,2.6,7.6l-0.6,8.4C183,21.8,182.1,24.3,179.5,26.4 M176.9,11.7c0.1-1.3,0.1-2.6-0.6-3.6c-0.5-0.5-1-0.8-2-0.9
			c-0.8-0.1-1.5-0.1-1.7,0.1s-0.2,0.5-0.3,0.9l-0.9,12.1c0,0.6-0.2,1.1,0.3,1.4c0.3,0.1,0.8,0.1,1.4,0.2c0.7,0.1,1.6-0.1,2.4-0.8
			c0.9-1,0.9-2,1-3.2L176.9,11.7z"/>
		<path class="st2" d="M200.5,28.6c-2.2,1.7-5,2-7.3,1.9c-0.9-0.1-1.4,0.3-1.5,1.9l-1,13.9c-0.1,1.1-0.7,1-3.6,0.8
			c-2.9-0.2-3.3-0.2-3.2-1.6l2.8-41.3c0.1-0.8,0.2-1.3,0.4-1.6c0.4-0.4,0.9-0.3,1.6-0.3l6.5,0.4c2.6,0.2,5.1,1,6.9,2.7
			c2,1.9,2.8,4.4,2.6,7.6l-0.6,8.4C204.1,24.1,203.1,26.6,200.5,28.6 M197.8,14c0.1-1.3,0.1-2.6-0.6-3.6c-0.5-0.5-1-0.8-2.1-0.9
			c-0.8-0.1-1.5-0.1-1.7,0.1c-0.2,0.2-0.2,0.5-0.3,0.9l-0.8,12.1c0,0.6-0.1,1.1,0.3,1.4c0.3,0.1,0.8,0.1,1.4,0.2
			c0.7,0,1.6-0.1,2.4-0.9c0.9-1,0.9-2,1-3.2L197.8,14z"/>
		<path class="st2" d="M220.2,48.7c-1.8-0.2-3.1-0.2-3.1-1.1c-0.2-3.6-0.2-6.1-0.4-9.6c0-0.6-0.8-0.6-1.8-0.7
			c-1.2-0.1-1.8-0.3-2,0.3c-0.7,3.5-1.2,5.9-1.8,9.5c-0.1,0.7-1.5,0.5-3.6,0.3c-1-0.1-3.2-0.3-3.1-0.9c3.9-16.4,6.5-27.4,10-42.6
			c0.2-0.9,2-0.8,3.4-0.7c1.6,0.1,3.3,0.4,3.3,1.5c1,16.5,1.5,26.6,2.5,43.5C223.9,49.1,221.9,48.9,220.2,48.7 M217,19.8
			c0-0.3,0-1.7-0.4-1.8c-0.3,0-0.6,1.6-0.6,1.8c-0.8,4.9-1.3,8.1-1.9,12.2c-0.1,0.4,0.3,0.5,1.2,0.6c0.8,0.1,1.5,0.3,1.4-0.3
			C216.8,27.5,216.9,24.8,217,19.8"/>
		<path class="st2" d="M244.1,46c-2,2.2-5,2.9-7.5,2.9c-1.9,0-4.7,0.1-6.2,0c-0.9-0.1-1.7,0.1-1.9-0.3c-0.3-0.4-0.4-0.6-0.4-1.9
			L228,6.1c0-0.8,0-1.3,0.4-1.7c0.4-0.4,0.8-0.3,1.5-0.3h6.3c2.8,0,5.7,0.8,7.6,2.7c1.8,1.8,2.5,4.3,2.5,7v5.4c0,2-0.4,3.2-1.2,4.4
			c-1.1,1.5-2.9,1.8-2.9,2.1c0,0.2,2.1,0.4,3.4,2.2c0.8,1.2,1,2.2,1,4v7.4C246.7,41.5,246.2,43.8,244.1,46 M239.5,15.1
			c0-1.3-0.1-2.6-0.9-3.5c-0.4-0.5-0.9-0.8-2-0.8c-0.8,0-1.3,0-1.5,0.3s-0.3,0.5-0.3,0.9v9.5c0,0.6,0,1,0.3,1.2
			c0.3,0.3,0.6,0.2,1.2,0.2c0.7,0,1.6-0.2,2.3-1c0.8-0.9,0.9-1.8,0.9-2.5V15.1z M239.8,33.1c0-2.4-0.8-4-2.6-4c-2,0-2.3,0.1-2.3,1.2
			v10.5c0,0.6,0,1.3,0.5,1.3c0.3,0.1,0.6,0.1,1.3,0.1c0.6,0,1.6-0.1,2.3-0.9c0.8-0.8,0.9-1.7,0.9-2.8L239.8,33.1z"/>
		<path class="st2" d="M264.1,51.2c-3.1-0.2-10.5-0.8-12.3-0.9c-0.9-0.1-1.8-0.1-2.1-0.5c-0.4-0.5-0.2-1.4-0.2-2.3
			c1.1-15.3,1.9-25.7,3-41c0.1-0.9,0.4-1,3.3-0.8c3.3,0.2,3.6,0.3,3.6,1.3c-1,13.7-1.8,25.3-2.5,34.8c-0.1,0.8-0.2,1.9,0.2,2.3
			c0.3,0.2,1.1,0.3,1.7,0.4c1.4,0.1,4.3,0.3,5.7,0.4c0.8,0.1,0.9,0.4,0.7,3.1C264.9,51.1,264.9,51.3,264.1,51.2"/>
		<path class="st2" d="M283.1,50.5c-2.5,0.1-8.5,0.3-11,0.4c-0.9,0-1.9,0.2-2.3-0.1c-0.5-0.4-0.4-1.2-0.4-1.9
			c-0.5-13.7-0.8-22.4-1.3-36.1c0-0.7,0-0.8,0.4-1.3c0.3-0.5,0.7-0.5,1.3-0.5c3.1-0.1,8.7-0.3,11.8-0.4c0.7,0,0.7,0.4,0.8,2.7
			c0.1,2.6,0.1,2.9-0.6,2.9c-1.5,0.1-4.6,0.2-5.7,0.2c-0.5,0-1.1,0.1-1.3,0.3c-0.3,0.4-0.3,0.4-0.2,1.1c0.1,3.8,0.1,3.7,0.3,7.5
			c0,0.5-0.1,1.1,0.4,1.5c0.4,0.3,0.8,0.2,1.3,0.2c1,0,2.2-0.1,2.7-0.1c0.7,0,0.8,0.3,0.8,2.8c0.1,2.4,0.1,2.7-0.6,2.8
			c-0.5,0-1.5,0.1-2.6,0.1c-0.6,0-1.2,0.1-1.4,0.2c-0.5,0.4-0.4,0.9-0.3,1.7c0.2,4.6,0.1,3.9,0.3,8.5c0,0.7,0.1,1.8,0.4,2
			s1.1,0.2,1.7,0.2c1.5-0.1,3.9-0.1,5.4-0.2c0.7,0,0.8,0.2,0.8,2.7C283.8,50.2,283.7,50.5,283.1,50.5"/>
		<path class="st2" d="M304.9,47.4c-2.2,3.4-3.7,4.6-7.9,4.3c-4.8-0.3-8.3-3.5-7.9-8.8c0-0.6,0.2-2.5,0.2-3.3c0-0.5,0.6-0.5,2.9-0.4
			c2.3,0.2,3.5,0.3,3.4,0.7c-0.1,0.8-0.1,1.9-0.2,2.5c-0.2,2.2,0.2,3.5,1.9,3.6c1.6,0.1,2.1-1,2.3-2c0.1-1,0.3-1.9,0.3-2.7
			c0.4-5.1-10.2-13-9.5-21.8c0.1-1.6,1-4.3,1.9-5.6s3.1-3.6,7.1-3.3c5,0.4,8,4.3,7.7,8.6c-0.1,0.9-0.1,1.9-0.2,2.9
			c0,0.4-0.8,0.3-2.8,0.1c-2.2-0.2-3.4-0.2-3.4-0.7c0.1-0.8,0.2-2.2,0.2-2.7c0.1-1.6-0.9-2.7-1.9-2.8c-1.1-0.1-1.9,0.8-2.1,1.7
			c-0.2,0.9-0.3,1.6-0.3,2.3c-0.5,6.9,10.3,12.5,9.6,22C306.1,44,305.7,46.2,304.9,47.4"/>
		<path class="st2" d="M150.7,44.5c-1.3,0.6-2.9,0-3.5-1.3s0-2.9,1.3-3.5s2.9,0,3.5,1.3C152.6,42.3,152,43.9,150.7,44.5"/>
		<path class="st2" d="M16.8,33.4c-1.9,2-4.6,2.7-7,2.8c-0.9,0.1-1.4,0.5-1.3,2.1l0.8,13.9c0.1,1.1-0.6,1.1-3.5,1.2
			c-2.9,0.2-3.3,0.2-3.3-1.2L0,10.8C0,10,0,9.5,0.2,9.2C0.5,8.8,1,8.8,1.8,8.7l6.5-0.4c2.6-0.2,5.1,0.3,7.2,1.8
			c2.3,1.7,3.4,4,3.6,7.2l0.5,8.4C19.7,28.4,19.1,31,16.8,33.4 M12.2,19.1c-0.1-1.3-0.2-2.6-1-3.5c-0.5-0.5-1.1-0.7-2.2-0.6
			c-0.8,0-1.5,0.1-1.7,0.4c-0.2,0.3-0.2,0.5-0.1,0.9l0.7,12.1c0,0.6,0,1.2,0.5,1.3c0.3,0,0.8,0,1.4,0c0.7,0,1.6-0.3,2.2-1.2
			c0.8-1.1,0.6-2.1,0.6-3.3L12.2,19.1z"/>
		<path class="st2" d="M33.1,38.1c-5.9,0.4-9.5-3.3-9.9-8.5l-0.9-10.7c-0.4-5.6,3.3-9.4,8.6-9.8c5.5-0.4,9.6,2.9,10,8.4l0.8,10.6
			C42.1,33.6,39.2,37.6,33.1,38.1 M34.1,19.4c-0.1-1.8-0.9-3.8-2.7-3.6c-1.9,0.1-2.3,2.2-2.1,4v-0.1c0.6,8.6,0.9,11.9,3.3,11.7
			C34.8,31.2,34.8,29,34.1,19.4L34.1,19.4z"/>
		<path class="st2" d="M61.3,31c-2.1,1.8-4.9,2.2-7.3,2.1c-0.9,0-1.4,0.3-1.5,1.9l-0.6,13.9c0,1.1-0.7,1-3.6,0.9
			c-2.9-0.1-3.3-0.1-3.2-1.5l1.8-41.4c0-0.8,0.1-1.3,0.4-1.6c0.3-0.5,0.8-0.4,1.6-0.4l6.5,0.3c2.6,0.1,5.1,0.9,6.9,2.5
			c2.1,1.9,3,4.4,2.8,7.6l-0.4,8.4C64.7,26.3,63.8,28.8,61.3,31 M58.2,16.4c0.1-1.3,0-2.6-0.7-3.6c-0.5-0.5-1.1-0.8-2.1-0.9
			c-0.8,0-1.5-0.1-1.7,0.2c-0.2,0.2-0.2,0.5-0.2,0.9L53,25.1c0,0.6-0.1,1.1,0.3,1.4c0.3,0.1,0.8,0.1,1.4,0.1c0.7,0,1.6-0.1,2.3-0.9
			c0.9-1.1,0.9-2,0.9-3.2L58.2,16.4z"/>
		<path class="st2" d="M33.9,47.4c-1.3,0.7-2.9,0.3-3.6-1s-0.3-2.9,1-3.6c1.3-0.7,2.9-0.3,3.6,1C35.6,45.1,35.2,46.7,33.9,47.4"/>
	</g>
</g>
<g class="st3">
	<g class="st0">
		<path class="st1" d="M81.3,14.5l1.2,19.9l-3.7,0.2l-1.2-19.9L74,14.9l-0.2-3.4l10.8-0.6l0.2,3.4L81.3,14.5z"/>
	</g>
	<g>
		<path class="st2" d="M81,13.2l1.2,19.9l-3.7,0.2l-1.2-19.9l-3.6,0.2l-0.2-3.4l10.8-0.7l0.2,3.4L81,13.2z"/>
	</g>
</g>
<g class="st3">
	<g class="st0">
		<path class="st1" d="M92.8,39.2l-0.6-9.8l-3.9,0.3l0.6,9.8l-3.7,0.2l-1.5-23.3l3.7-0.2L88,26.3l3.9-0.3l-0.6-10.1l3.7-0.2
			l1.5,23.2L92.8,39.2z"/>
	</g>
	<g>
		<path class="st2" d="M92.5,37.9l-0.6-9.8L88,28.4l0.6,9.8l-3.7,0.2l-1.5-23.3l3.7-0.2L87.8,25l3.9-0.3L91,14.6l3.7-0.2l1.5,23.3
			L92.5,37.9z"/>
	</g>
</g>
<g class="st3">
	<g class="st0">
		<path class="st1" d="M98,34.9V11.6h9.3v3.3h-5.6v6.4h3.9v3.1h-3.9v7.1h5.6v3.4L98,34.9z"/>
	</g>
	<g>
		<path class="st2" d="M97.7,33.6V10.3h9.3v3.3h-5.6V20h3.9v3.1h-3.9v7.1h5.6v3.4L97.7,33.6z"/>
	</g>
</g>
<g>
	<g class="st0">
		<path class="st1" d="M106.4,46.4l-25,1.8c-1.4,0.1-2.8-0.4-3-1.1l0,0c-0.2-0.7,0.8-1.4,2.2-1.5l25-1.8c1.4-0.1,2.8,0.4,3,1.1l0,0
			C108.8,45.7,107.8,46.3,106.4,46.4z"/>
	</g>
	<g>
		<path class="st2" d="M106.1,45.1l-25,1.8c-1.4,0.1-2.8-0.4-3-1.1l0,0c-0.2-0.7,0.8-1.4,2.2-1.5l25-1.8c1.4-0.1,2.8,0.4,3,1.1l0,0
			C108.5,44.4,107.5,45,106.1,45.1z"/>
	</g>
</g>
</svg>
