<?xml version="1.0" encoding="utf-8"?>
<!-- Generator: Adobe Illustrator 19.2.1, SVG Export Plug-In . SVG Version: 6.00 Build 0)  -->
<svg version="1.1" id="Layer_1" xmlns="http://www.w3.org/2000/svg" xmlns:xlink="http://www.w3.org/1999/xlink" x="0px" y="0px"
	 viewBox="0 0 307.2 53.6" style="enable-background:new 0 0 307.2 53.6;" xml:space="preserve">
<style type="text/css">
	.st0{opacity:0.75;}
	.st1{fill:#FFFFFF;}
	.st2{enable-background:new    ;}
</style>
<g>
	<g class="st0">
		<path d="M134.3,30.3c-1.9,2-4.6,2.7-7,2.9c-0.9,0.1-1.4,0.5-1.2,2.1l1.1,13.9c0.1,1.1-0.6,1.1-3.5,1.3s-3.3,0.3-3.4-1.1L117,8.1
			c-0.1-0.8,0-1.3,0.2-1.6c0.3-0.5,0.8-0.4,1.6-0.5l6.5-0.5c2.6-0.2,5.2,0.2,7.2,1.7c2.3,1.6,3.5,4,3.7,7.2l0.7,8.4
			C137.1,25.2,136.5,27.9,134.3,30.3 M129.4,16.1c-0.1-1.3-0.3-2.5-1.1-3.4c-0.6-0.5-1.1-0.7-2.2-0.6c-0.8,0.1-1.5,0.1-1.7,0.4
			c-0.2,0.3-0.2,0.5-0.1,0.9l1,12.1c0,0.6,0,1.2,0.5,1.3c0.3,0,0.8,0,1.4,0c0.7-0.1,1.6-0.3,2.2-1.2c0.7-1.2,0.6-2.1,0.5-3.3
			L129.4,16.1z"/>
		<path d="M150.1,34.5c-5.9-0.1-9.2-4.2-9.1-9.4l0.2-10.7c0.1-5.6,4.2-9.1,9.5-8.9c5.5,0.1,9.3,3.8,9.1,9.4l-0.2,10.7
			C159.5,30.9,156.3,34.7,150.1,34.5 M152.9,16c0-1.8-0.5-3.9-2.3-3.9c-1.9,0-2.5,2-2.5,3.8v-0.1c-0.2,8.6-0.2,11.9,2.2,12
			C152.5,27.8,152.7,25.6,152.9,16L152.9,16z"/>
		<path d="M178.8,25.8c-2.2,1.7-5,2-7.3,1.8c-0.9-0.1-1.4,0.3-1.6,1.9l-1,13.9c-0.1,1.1-0.7,1-3.7,0.8c-2.9-0.2-3.3-0.2-3.1-1.6
			l3.1-41.3c0.1-0.8,0.2-1.3,0.4-1.6c0.4-0.4,0.9-0.3,1.6-0.3l6.5,0.5c2.6,0.2,5.1,1,6.9,2.8c2,1.9,2.8,4.4,2.6,7.6l-0.6,8.4
			C182.3,21.2,181.4,23.7,178.8,25.8 M176.2,11.1c0.1-1.3,0.1-2.6-0.6-3.6c-0.5-0.5-1-0.8-2-0.9c-0.8-0.1-1.5-0.1-1.7,0.1
			s-0.2,0.5-0.3,0.9l-0.9,12.1c0,0.6-0.2,1.1,0.3,1.4c0.3,0.1,0.8,0.1,1.4,0.2c0.7,0.1,1.6-0.1,2.4-0.8c0.9-1,0.9-2,1-3.2
			L176.2,11.1z"/>
		<path d="M199.8,28c-2.2,1.7-5,2-7.3,1.9c-0.9-0.1-1.4,0.3-1.5,1.9l-1,13.9c-0.1,1.1-0.7,1-3.6,0.8c-2.9-0.2-3.3-0.2-3.2-1.6
			L186,3.6c0.1-0.8,0.2-1.3,0.4-1.6c0.4-0.4,0.9-0.3,1.6-0.3l6.5,0.4c2.6,0.2,5.1,1,6.9,2.7c2,1.9,2.8,4.4,2.6,7.6l-0.6,8.4
			C203.4,23.5,202.4,26,199.8,28 M197.1,13.4c0.1-1.3,0.1-2.6-0.6-3.6c-0.5-0.5-1-0.8-2.1-0.9c-0.8-0.1-1.5-0.1-1.7,0.1
			c-0.2,0.2-0.2,0.5-0.3,0.9L191.6,22c0,0.6-0.1,1.1,0.3,1.4c0.3,0.1,0.8,0.1,1.4,0.2c0.7,0,1.6-0.1,2.4-0.9c0.9-1,0.9-2,1-3.2
			L197.1,13.4z"/>
		<path d="M219.5,48.1c-1.8-0.2-3.1-0.2-3.1-1.1c-0.2-3.6-0.2-6.1-0.4-9.6c0-0.6-0.8-0.6-1.8-0.7c-1.2-0.1-1.8-0.3-2,0.3
			c-0.7,3.5-1.2,5.9-1.8,9.5c-0.1,0.7-1.5,0.5-3.6,0.3c-1-0.1-3.2-0.3-3.1-0.9c3.9-16.4,6.5-27.4,10-42.6c0.2-0.9,2-0.8,3.4-0.7
			c1.6,0.1,3.3,0.4,3.3,1.5c1,16.5,1.5,26.6,2.5,43.5C223.2,48.5,221.2,48.3,219.5,48.1 M216.3,19.2c0-0.3,0-1.7-0.4-1.8
			c-0.3,0-0.6,1.6-0.6,1.8c-0.8,4.9-1.3,8.1-1.9,12.2c-0.1,0.4,0.3,0.5,1.2,0.6c0.8,0.1,1.5,0.3,1.4-0.3
			C216.1,26.9,216.2,24.2,216.3,19.2"/>
		<path d="M243.4,45.4c-2,2.2-5,2.9-7.5,2.9c-1.9,0-4.7,0.1-6.2,0c-0.9-0.1-1.7,0.1-1.9-0.3c-0.3-0.4-0.4-0.6-0.4-1.9l-0.1-40.6
			c0-0.8,0-1.3,0.4-1.7s0.8-0.3,1.5-0.3h6.3c2.8,0,5.7,0.8,7.6,2.7c1.8,1.8,2.5,4.3,2.5,7v5.4c0,2-0.4,3.2-1.2,4.4
			c-1.1,1.5-2.9,1.8-2.9,2.1c0,0.2,2.1,0.4,3.4,2.2c0.8,1.2,1,2.2,1,4v7.4C246,40.9,245.5,43.2,243.4,45.4 M238.8,14.5
			c0-1.3-0.1-2.6-0.9-3.5c-0.4-0.5-0.9-0.8-2-0.8c-0.8,0-1.3,0-1.5,0.3s-0.3,0.5-0.3,0.9v9.5c0,0.6,0,1,0.3,1.2
			c0.3,0.3,0.6,0.2,1.2,0.2c0.7,0,1.6-0.2,2.3-1c0.8-0.9,0.9-1.8,0.9-2.5V14.5z M239.1,32.5c0-2.4-0.8-4-2.6-4c-2,0-2.3,0.1-2.3,1.2
			v10.5c0,0.6,0,1.3,0.5,1.3c0.3,0.1,0.6,0.1,1.3,0.1c0.6,0,1.6-0.1,2.3-0.9c0.8-0.8,0.9-1.7,0.9-2.8L239.1,32.5z"/>
		<path d="M263.4,50.6c-3.1-0.2-10.5-0.8-12.3-0.9c-0.9-0.1-1.8-0.1-2.1-0.5c-0.4-0.5-0.2-1.4-0.2-2.3c1.1-15.3,1.9-25.7,3-41
			c0.1-0.9,0.4-1,3.3-0.8c3.3,0.2,3.6,0.3,3.6,1.3c-1,13.7-1.8,25.3-2.5,34.8c-0.1,0.8-0.2,1.9,0.2,2.3c0.3,0.2,1.1,0.3,1.7,0.4
			c1.4,0.1,4.3,0.3,5.7,0.4c0.8,0.1,0.9,0.4,0.7,3.1C264.2,50.5,264.2,50.7,263.4,50.6"/>
		<path d="M282.4,49.9c-2.5,0.1-8.5,0.3-11,0.4c-0.9,0-1.9,0.2-2.3-0.1c-0.5-0.4-0.4-1.2-0.4-1.9c-0.5-13.7-0.8-22.4-1.3-36.1
			c0-0.7,0-0.8,0.4-1.3c0.3-0.5,0.7-0.5,1.3-0.5c3.1-0.1,8.7-0.3,11.8-0.4c0.7,0,0.7,0.4,0.8,2.7c0.1,2.6,0.1,2.9-0.6,2.9
			c-1.5,0.1-4.6,0.2-5.7,0.2c-0.5,0-1.1,0.1-1.3,0.3c-0.3,0.4-0.3,0.4-0.2,1.1c0.1,3.8,0.1,3.7,0.3,7.5c0,0.5-0.1,1.1,0.4,1.5
			c0.4,0.3,0.8,0.2,1.3,0.2c1,0,2.2-0.1,2.7-0.1c0.7,0,0.8,0.3,0.8,2.8c0.1,2.4,0.1,2.7-0.6,2.8c-0.5,0-1.5,0.1-2.6,0.1
			c-0.6,0-1.2,0.1-1.4,0.2c-0.5,0.4-0.4,0.9-0.3,1.7c0.2,4.6,0.1,3.9,0.3,8.5c0,0.7,0.1,1.8,0.4,2s1.1,0.2,1.7,0.2
			c1.5-0.1,3.9-0.1,5.4-0.2c0.7,0,0.8,0.2,0.8,2.7C283.1,49.6,283,49.9,282.4,49.9"/>
		<path d="M304.2,46.8c-2.2,3.4-3.7,4.6-7.9,4.3c-4.8-0.3-8.3-3.5-7.9-8.8c0-0.6,0.2-2.5,0.2-3.3c0-0.5,0.6-0.5,2.9-0.4
			c2.3,0.2,3.5,0.3,3.4,0.7c-0.1,0.8-0.1,1.9-0.2,2.5c-0.2,2.2,0.2,3.5,1.9,3.6c1.6,0.1,2.1-1,2.3-2c0.1-1,0.3-1.9,0.3-2.7
			c0.4-5.1-10.2-13-9.5-21.8c0.1-1.6,1-4.3,1.9-5.6s3.1-3.6,7.1-3.3c5,0.4,8,4.3,7.7,8.6c-0.1,0.9-0.1,1.9-0.2,2.9
			c0,0.4-0.8,0.3-2.8,0.1c-2.2-0.2-3.4-0.2-3.4-0.7c0.1-0.8,0.2-2.2,0.2-2.7c0.1-1.6-0.9-2.7-1.9-2.8c-1.1-0.1-1.9,0.8-2.1,1.7
			c-0.2,0.9-0.3,1.6-0.3,2.3c-0.5,6.9,10.3,12.5,9.6,22C305.4,43.4,305,45.6,304.2,46.8"/>
		<path d="M150,43.9c-1.3,0.6-2.9,0-3.5-1.3s0-2.9,1.3-3.5s2.9,0,3.5,1.3C151.9,41.7,151.3,43.3,150,43.9"/>
		<path d="M16.1,32.8c-1.9,2-4.6,2.7-7,2.8c-0.9,0.1-1.4,0.5-1.3,2.1l0.8,13.9c0.1,1.1-0.6,1.1-3.5,1.2C2.2,53,1.8,53,1.8,51.6
			l-2.5-41.4c0-0.8,0-1.3,0.2-1.6c0.3-0.4,0.8-0.4,1.6-0.5l6.5-0.4c2.6-0.2,5.1,0.3,7.2,1.8c2.3,1.7,3.4,4,3.6,7.2l0.5,8.4
			C19,27.8,18.4,30.4,16.1,32.8 M11.5,18.5c-0.1-1.3-0.2-2.6-1-3.5c-0.5-0.5-1.1-0.7-2.2-0.6c-0.8,0-1.5,0.1-1.7,0.4
			c-0.2,0.3-0.2,0.5-0.1,0.9l0.7,12.1c0,0.6,0,1.2,0.5,1.3c0.3,0,0.8,0,1.4,0c0.7,0,1.6-0.3,2.2-1.2c0.8-1.1,0.6-2.1,0.6-3.3
			L11.5,18.5z"/>
		<path d="M32.4,37.5c-5.9,0.4-9.5-3.3-9.9-8.5l-0.9-10.7c-0.4-5.6,3.3-9.4,8.6-9.8c5.5-0.4,9.6,2.9,10,8.4L41,27.5
			C41.4,33,38.5,37,32.4,37.5 M33.4,18.8c-0.1-1.8-0.9-3.8-2.7-3.6c-1.9,0.1-2.3,2.2-2.1,4v-0.1c0.6,8.6,0.9,11.9,3.3,11.7
			C34.1,30.6,34.1,28.4,33.4,18.8L33.4,18.8z"/>
		<path d="M60.6,30.4c-2.1,1.8-4.9,2.2-7.3,2.1c-0.9,0-1.4,0.3-1.5,1.9l-0.6,13.9c0,1.1-0.7,1-3.6,0.9c-2.9-0.1-3.3-0.1-3.2-1.5
			l1.8-41.4c0-0.8,0.1-1.3,0.4-1.6c0.3-0.5,0.8-0.4,1.6-0.4l6.5,0.3c2.6,0.1,5.1,0.9,6.9,2.5c2.1,1.9,3,4.4,2.8,7.6L64,23.1
			C64,25.7,63.1,28.2,60.6,30.4 M57.5,15.8c0.1-1.3,0-2.6-0.7-3.6c-0.5-0.5-1.1-0.8-2.1-0.9c-0.8,0-1.5-0.1-1.7,0.2
			c-0.2,0.2-0.2,0.5-0.2,0.9l-0.5,12.1c0,0.6-0.1,1.1,0.3,1.4C52.9,26,53.4,26,54,26c0.7,0,1.6-0.1,2.3-0.9c0.9-1.1,0.9-2,0.9-3.2
			L57.5,15.8z"/>
		<path d="M33.2,46.8c-1.3,0.7-2.9,0.3-3.6-1s-0.3-2.9,1-3.6c1.3-0.7,2.9-0.3,3.6,1C34.9,44.5,34.5,46.1,33.2,46.8"/>
	</g>
	<g>
		<path class="st1" d="M135,31c-1.9,2-4.6,2.7-7,2.9c-0.9,0.1-1.4,0.5-1.2,2.1l1.1,13.9c0.1,1.1-0.6,1.1-3.5,1.3s-3.3,0.3-3.4-1.1
			l-3.3-41.3c-0.1-0.8,0-1.3,0.2-1.6c0.3-0.5,0.8-0.4,1.6-0.5l6.5-0.5c2.6-0.2,5.2,0.2,7.2,1.7c2.3,1.6,3.5,4,3.7,7.2l0.7,8.4
			C137.8,25.9,137.2,28.6,135,31 M130.1,16.8c-0.1-1.3-0.3-2.5-1.1-3.4c-0.6-0.5-1.1-0.7-2.2-0.6c-0.8,0.1-1.5,0.1-1.7,0.4
			c-0.2,0.3-0.2,0.5-0.1,0.9l1,12.1c0,0.6,0,1.2,0.5,1.3c0.3,0,0.8,0,1.4,0c0.7-0.1,1.6-0.3,2.2-1.2c0.7-1.2,0.6-2.1,0.5-3.3
			L130.1,16.8z"/>
		<path class="st1" d="M150.8,35.2c-5.9-0.1-9.2-4.2-9.1-9.4l0.2-10.7c0.1-5.6,4.2-9.1,9.5-8.9c5.5,0.1,9.3,3.8,9.1,9.4l-0.2,10.7
			C160.2,31.6,157,35.4,150.8,35.2 M153.6,16.7c0-1.8-0.5-3.9-2.3-3.9c-1.9,0-2.5,2-2.5,3.8v-0.1c-0.2,8.6-0.2,11.9,2.2,12
			C153.2,28.5,153.4,26.3,153.6,16.7L153.6,16.7z"/>
		<path class="st1" d="M179.5,26.5c-2.2,1.7-5,2-7.3,1.8c-0.9-0.1-1.4,0.3-1.6,1.9l-1,13.9c-0.1,1.1-0.7,1-3.7,0.8
			c-2.9-0.2-3.3-0.2-3.1-1.6L165.9,2c0.1-0.8,0.2-1.3,0.4-1.6c0.4-0.4,0.9-0.3,1.6-0.3l6.5,0.5c2.6,0.2,5.1,1,6.9,2.8
			c2,1.9,2.8,4.4,2.6,7.6l-0.6,8.4C183,21.9,182.1,24.4,179.5,26.5 M176.9,11.8c0.1-1.3,0.1-2.6-0.6-3.6c-0.5-0.5-1-0.8-2-0.9
			c-0.8-0.1-1.5-0.1-1.7,0.1s-0.2,0.5-0.3,0.9l-0.9,12.1c0,0.6-0.2,1.1,0.3,1.4c0.3,0.1,0.8,0.1,1.4,0.2c0.7,0.1,1.6-0.1,2.4-0.8
			c0.9-1,0.9-2,1-3.2L176.9,11.8z"/>
		<path class="st1" d="M200.5,28.7c-2.2,1.7-5,2-7.3,1.9c-0.9-0.1-1.4,0.3-1.5,1.9l-1,13.9c-0.1,1.1-0.7,1-3.6,0.8
			c-2.9-0.2-3.3-0.2-3.2-1.6l2.8-41.3c0.1-0.8,0.2-1.3,0.4-1.6c0.4-0.4,0.9-0.3,1.6-0.3l6.5,0.4c2.6,0.2,5.1,1,6.9,2.7
			c2,1.9,2.8,4.4,2.6,7.6l-0.6,8.4C204.1,24.2,203.1,26.7,200.5,28.7 M197.8,14.1c0.1-1.3,0.1-2.6-0.6-3.6c-0.5-0.5-1-0.8-2.1-0.9
			c-0.8-0.1-1.5-0.1-1.7,0.1c-0.2,0.2-0.2,0.5-0.3,0.9l-0.8,12.1c0,0.6-0.1,1.1,0.3,1.4c0.3,0.1,0.8,0.1,1.4,0.2
			c0.7,0,1.6-0.1,2.4-0.9c0.9-1,0.9-2,1-3.2L197.8,14.1z"/>
		<path class="st1" d="M220.2,48.8c-1.8-0.2-3.1-0.2-3.1-1.1c-0.2-3.6-0.2-6.1-0.4-9.6c0-0.6-0.8-0.6-1.8-0.7
			c-1.2-0.1-1.8-0.3-2,0.3c-0.7,3.5-1.2,5.9-1.8,9.5c-0.1,0.7-1.5,0.5-3.6,0.3c-1-0.1-3.2-0.3-3.1-0.9c3.9-16.4,6.5-27.4,10-42.6
			c0.2-0.9,2-0.8,3.4-0.7c1.6,0.1,3.3,0.4,3.3,1.5c1,16.5,1.5,26.6,2.5,43.5C223.9,49.2,221.9,49,220.2,48.8 M217,19.9
			c0-0.3,0-1.7-0.4-1.8c-0.3,0-0.6,1.6-0.6,1.8c-0.8,4.9-1.3,8.1-1.9,12.2c-0.1,0.4,0.3,0.5,1.2,0.6c0.8,0.1,1.5,0.3,1.4-0.3
			C216.8,27.6,216.9,24.9,217,19.9"/>
		<path class="st1" d="M244.1,46.1c-2,2.2-5,2.9-7.5,2.9c-1.9,0-4.7,0.1-6.2,0c-0.9-0.1-1.7,0.1-1.9-0.3c-0.3-0.4-0.4-0.6-0.4-1.9
			L228,6.2c0-0.8,0-1.3,0.4-1.7c0.4-0.4,0.8-0.3,1.5-0.3h6.3c2.8,0,5.7,0.8,7.6,2.7c1.8,1.8,2.5,4.3,2.5,7v5.4c0,2-0.4,3.2-1.2,4.4
			c-1.1,1.5-2.9,1.8-2.9,2.1c0,0.2,2.1,0.4,3.4,2.2c0.8,1.2,1,2.2,1,4v7.4C246.7,41.6,246.2,43.9,244.1,46.1 M239.5,15.2
			c0-1.3-0.1-2.6-0.9-3.5c-0.4-0.5-0.9-0.8-2-0.8c-0.8,0-1.3,0-1.5,0.3s-0.3,0.5-0.3,0.9v9.5c0,0.6,0,1,0.3,1.2
			c0.3,0.3,0.6,0.2,1.2,0.2c0.7,0,1.6-0.2,2.3-1c0.8-0.9,0.9-1.8,0.9-2.5V15.2z M239.8,33.2c0-2.4-0.8-4-2.6-4c-2,0-2.3,0.1-2.3,1.2
			v10.5c0,0.6,0,1.3,0.5,1.3c0.3,0.1,0.6,0.1,1.3,0.1c0.6,0,1.6-0.1,2.3-0.9c0.8-0.8,0.9-1.7,0.9-2.8L239.8,33.2z"/>
		<path class="st1" d="M264.1,51.3c-3.1-0.2-10.5-0.8-12.3-0.9c-0.9-0.1-1.8-0.1-2.1-0.5c-0.4-0.5-0.2-1.4-0.2-2.3
			c1.1-15.3,1.9-25.7,3-41c0.1-0.9,0.4-1,3.3-0.8c3.3,0.2,3.6,0.3,3.6,1.3c-1,13.7-1.8,25.3-2.5,34.8c-0.1,0.8-0.2,1.9,0.2,2.3
			c0.3,0.2,1.1,0.3,1.7,0.4c1.4,0.1,4.3,0.3,5.7,0.4c0.8,0.1,0.9,0.4,0.7,3.1C264.9,51.2,264.9,51.4,264.1,51.3"/>
		<path class="st1" d="M283.1,50.6c-2.5,0.1-8.5,0.3-11,0.4c-0.9,0-1.9,0.2-2.3-0.1c-0.5-0.4-0.4-1.2-0.4-1.9
			c-0.5-13.7-0.8-22.4-1.3-36.1c0-0.7,0-0.8,0.4-1.3c0.3-0.5,0.7-0.5,1.3-0.5c3.1-0.1,8.7-0.3,11.8-0.4c0.7,0,0.7,0.4,0.8,2.7
			c0.1,2.6,0.1,2.9-0.6,2.9c-1.5,0.1-4.6,0.2-5.7,0.2c-0.5,0-1.1,0.1-1.3,0.3c-0.3,0.4-0.3,0.4-0.2,1.1c0.1,3.8,0.1,3.7,0.3,7.5
			c0,0.5-0.1,1.1,0.4,1.5c0.4,0.3,0.8,0.2,1.3,0.2c1,0,2.2-0.1,2.7-0.1c0.7,0,0.8,0.3,0.8,2.8c0.1,2.4,0.1,2.7-0.6,2.8
			c-0.5,0-1.5,0.1-2.6,0.1c-0.6,0-1.2,0.1-1.4,0.2c-0.5,0.4-0.4,0.9-0.3,1.7c0.2,4.6,0.1,3.9,0.3,8.5c0,0.7,0.1,1.8,0.4,2
			s1.1,0.2,1.7,0.2c1.5-0.1,3.9-0.1,5.4-0.2c0.7,0,0.8,0.2,0.8,2.7C283.8,50.3,283.7,50.6,283.1,50.6"/>
		<path class="st1" d="M304.9,47.5c-2.2,3.4-3.7,4.6-7.9,4.3c-4.8-0.3-8.3-3.5-7.9-8.8c0-0.6,0.2-2.5,0.2-3.3c0-0.5,0.6-0.5,2.9-0.4
			c2.3,0.2,3.5,0.3,3.4,0.7c-0.1,0.8-0.1,1.9-0.2,2.5c-0.2,2.2,0.2,3.5,1.9,3.6c1.6,0.1,2.1-1,2.3-2c0.1-1,0.3-1.9,0.3-2.7
			c0.4-5.1-10.2-13-9.5-21.8c0.1-1.6,1-4.3,1.9-5.6s3.1-3.6,7.1-3.3c5,0.4,8,4.3,7.7,8.6c-0.1,0.9-0.1,1.9-0.2,2.9
			c0,0.4-0.8,0.3-2.8,0.1c-2.2-0.2-3.4-0.2-3.4-0.7c0.1-0.8,0.2-2.2,0.2-2.7c0.1-1.6-0.9-2.7-1.9-2.8c-1.1-0.1-1.9,0.8-2.1,1.7
			c-0.2,0.9-0.3,1.6-0.3,2.3c-0.5,6.9,10.3,12.5,9.6,22C306.1,44.1,305.7,46.3,304.9,47.5"/>
		<path class="st1" d="M150.7,44.6c-1.3,0.6-2.9,0-3.5-1.3s0-2.9,1.3-3.5s2.9,0,3.5,1.3C152.6,42.4,152,44,150.7,44.6"/>
		<path class="st1" d="M16.8,33.5c-1.9,2-4.6,2.7-7,2.8c-0.9,0.1-1.4,0.5-1.3,2.1l0.8,13.9c0.1,1.1-0.6,1.1-3.5,1.2
			c-2.9,0.2-3.3,0.2-3.3-1.2L0,10.9c0-0.8,0-1.3,0.2-1.6C0.5,8.9,1,8.9,1.8,8.8l6.5-0.4c2.6-0.2,5.1,0.3,7.2,1.8
			c2.3,1.7,3.4,4,3.6,7.2l0.5,8.4C19.7,28.5,19.1,31.1,16.8,33.5 M12.2,19.2c-0.1-1.3-0.2-2.6-1-3.5c-0.5-0.5-1.1-0.7-2.2-0.6
			c-0.8,0-1.5,0.1-1.7,0.4c-0.2,0.3-0.2,0.5-0.1,0.9l0.7,12.1c0,0.6,0,1.2,0.5,1.3c0.3,0,0.8,0,1.4,0c0.7,0,1.6-0.3,2.2-1.2
			c0.8-1.1,0.6-2.1,0.6-3.3L12.2,19.2z"/>
		<path class="st1" d="M33.1,38.2c-5.9,0.4-9.5-3.3-9.9-8.5L22.3,19c-0.4-5.6,3.3-9.4,8.6-9.8c5.5-0.4,9.6,2.9,10,8.4l0.8,10.6
			C42.1,33.7,39.2,37.7,33.1,38.2 M34.1,19.5c-0.1-1.8-0.9-3.8-2.7-3.6c-1.9,0.1-2.3,2.2-2.1,4v-0.1c0.6,8.6,0.9,11.9,3.3,11.7
			C34.8,31.3,34.8,29.1,34.1,19.5L34.1,19.5z"/>
		<path class="st1" d="M61.3,31.1c-2.1,1.8-4.9,2.2-7.3,2.1c-0.9,0-1.4,0.3-1.5,1.9L51.9,49c0,1.1-0.7,1-3.6,0.9
			c-2.9-0.1-3.3-0.1-3.2-1.5L46.9,7c0-0.8,0.1-1.3,0.4-1.6C47.6,4.9,48.1,5,48.9,5l6.5,0.3c2.6,0.1,5.1,0.9,6.9,2.5
			c2.1,1.9,3,4.4,2.8,7.6l-0.4,8.4C64.7,26.4,63.8,28.9,61.3,31.1 M58.2,16.5c0.1-1.3,0-2.6-0.7-3.6c-0.5-0.5-1.1-0.8-2.1-0.9
			c-0.8,0-1.5-0.1-1.7,0.2c-0.2,0.2-0.2,0.5-0.2,0.9L53,25.2c0,0.6-0.1,1.1,0.3,1.4c0.3,0.1,0.8,0.1,1.4,0.1c0.7,0,1.6-0.1,2.3-0.9
			c0.9-1.1,0.9-2,0.9-3.2L58.2,16.5z"/>
		<path class="st1" d="M33.9,47.5c-1.3,0.7-2.9,0.3-3.6-1s-0.3-2.9,1-3.6c1.3-0.7,2.9-0.3,3.6,1C35.6,45.2,35.2,46.8,33.9,47.5"/>
	</g>
</g>
<g class="st2">
	<g class="st0">
		<path d="M80.3,12.6l1.2,19.9l-3.7,0.2l-1.2-19.9L73,13l-0.2-3.4L83.6,9l0.2,3.4L80.3,12.6z"/>
	</g>
	<g>
		<path class="st1" d="M81,13.3l1.2,19.9l-3.7,0.2l-1.2-19.9l-3.6,0.2l-0.2-3.4l10.8-0.7l0.2,3.4L81,13.3z"/>
	</g>
</g>
<g class="st2">
	<g class="st0">
		<path d="M91.8,37.3l-0.6-9.8l-3.9,0.3l0.6,9.8l-3.7,0.2l-1.5-23.3l3.7-0.2L87,24.4l3.9-0.3L90.3,14l3.7-0.2L95.5,37L91.8,37.3z"/>
	</g>
	<g>
		<path class="st1" d="M92.5,38l-0.6-9.8L88,28.5l0.6,9.8l-3.7,0.2l-1.5-23.3l3.7-0.2l0.7,10.1l3.9-0.3L91,14.7l3.7-0.2l1.5,23.3
			L92.5,38z"/>
	</g>
</g>
<g class="st2">
	<g class="st0">
		<path d="M97,33l0-23.3l9.3,0l0,3.3l-5.6,0l0,6.4l3.9,0l0,3.1l-3.9,0l0,7.1l5.6,0l0,3.4L97,33z"/>
	</g>
	<g>
		<path class="st1" d="M97.7,33.7l0-23.3l9.3,0l0,3.3l-5.6,0l0,6.4l3.9,0l0,3.1l-3.9,0l0,7.1l5.6,0l0,3.4L97.7,33.7z"/>
	</g>
</g>
<g>
	<g class="st0">
		<path d="M105.4,44.5l-25,1.8c-1.4,0.1-2.8-0.4-3-1.1l0,0c-0.2-0.7,0.8-1.4,2.2-1.5l25-1.8c1.4-0.1,2.8,0.4,3,1.1l0,0
			C107.8,43.8,106.8,44.4,105.4,44.5z"/>
	</g>
	<g>
		<path class="st1" d="M106.1,45.2l-25,1.8c-1.4,0.1-2.8-0.4-3-1.1l0,0c-0.2-0.7,0.8-1.4,2.2-1.5l25-1.8c1.4-0.1,2.8,0.4,3,1.1l0,0
			C108.5,44.5,107.5,45.1,106.1,45.2z"/>
	</g>
</g>
</svg>
