<?xml version="1.0" encoding="utf-8"?>
<!-- Generator: Adobe Illustrator 21.0.0, SVG Export Plug-In . SVG Version: 6.00 Build 0)  -->
<svg version="1.1" id="Isolation_Mode" xmlns="http://www.w3.org/2000/svg" xmlns:xlink="http://www.w3.org/1999/xlink" x="0px"
	 y="0px" viewBox="0 0 316 55.9" style="enable-background:new 0 0 316 55.9;" xml:space="preserve">
<style type="text/css">
	.st0{opacity:0.1;}
	.st1{fill:#FFFFFF;}
</style>
<g>
	<g class="st0">
		<path d="M143.8,32c-1.9,2-4.6,2.7-7,2.9c-0.9,0.1-1.4,0.5-1.2,2.1l1.1,13.9c0.1,1.1-0.6,1.1-3.5,1.3c-2.9,0.2-3.3,0.3-3.4-1.1
			l-3.3-41.3c-0.1-0.8,0-1.3,0.2-1.6c0.3-0.5,0.8-0.4,1.6-0.5l6.5-0.5c2.6-0.2,5.2,0.2,7.2,1.7c2.3,1.6,3.5,4,3.7,7.2l0.7,8.4
			C146.6,26.9,146,29.6,143.8,32 M138.9,17.8c-0.1-1.3-0.3-2.5-1.1-3.4c-0.6-0.5-1.1-0.7-2.2-0.6c-0.8,0.1-1.5,0.1-1.7,0.4
			c-0.2,0.3-0.2,0.5-0.1,0.9l1,12.1c0,0.6,0,1.2,0.5,1.3c0.3,0,0.8,0,1.4,0c0.7-0.1,1.6-0.3,2.2-1.2c0.7-1.2,0.6-2.1,0.5-3.3
			L138.9,17.8z"/>
		<path d="M159.6,36.2c-5.9-0.1-9.2-4.2-9.1-9.4l0.2-10.7c0.1-5.6,4.2-9.1,9.5-8.9c5.5,0.1,9.3,3.8,9.1,9.4l-0.2,10.7
			C169,32.6,165.8,36.4,159.6,36.2 M162.4,17.7c0-1.8-0.5-3.9-2.3-3.9c-1.9,0-2.5,2-2.5,3.8l0-0.1c-0.2,8.6-0.2,11.9,2.2,12
			C162,29.5,162.2,27.3,162.4,17.7L162.4,17.7z"/>
		<path d="M188.3,27.5c-2.2,1.7-5,2-7.3,1.8c-0.9-0.1-1.4,0.3-1.6,1.9l-1,13.9c-0.1,1.1-0.7,1-3.7,0.8c-2.9-0.2-3.3-0.2-3.1-1.6
			l3.1-41.3c0.1-0.8,0.2-1.3,0.4-1.6c0.4-0.4,0.9-0.3,1.6-0.3l6.5,0.5c2.6,0.2,5.1,1,6.9,2.8c2,1.9,2.8,4.4,2.6,7.6l-0.6,8.4
			C191.8,22.9,190.9,25.4,188.3,27.5 M185.7,12.8c0.1-1.3,0.1-2.6-0.6-3.6c-0.5-0.5-1-0.8-2-0.9c-0.8-0.1-1.5-0.1-1.7,0.1
			c-0.2,0.2-0.2,0.5-0.3,0.9l-0.9,12.1c0,0.6-0.2,1.1,0.3,1.4c0.3,0.1,0.8,0.1,1.4,0.2c0.7,0.1,1.6-0.1,2.4-0.8c0.9-1,0.9-2,1-3.2
			L185.7,12.8z"/>
		<path d="M209.3,29.7c-2.2,1.7-5,2-7.3,1.9c-0.9-0.1-1.4,0.3-1.5,1.9l-1,13.9c-0.1,1.1-0.7,1-3.6,0.8c-2.9-0.2-3.3-0.2-3.2-1.6
			l2.8-41.3c0.1-0.8,0.2-1.3,0.4-1.6c0.4-0.4,0.9-0.3,1.6-0.3l6.5,0.4c2.6,0.2,5.1,1,6.9,2.7c2,1.9,2.8,4.4,2.6,7.6l-0.6,8.4
			C212.8,25.2,211.9,27.7,209.3,29.7 M206.6,15.1c0.1-1.3,0.1-2.6-0.6-3.6c-0.5-0.5-1-0.8-2.1-0.9c-0.8-0.1-1.5-0.1-1.7,0.1
			c-0.2,0.2-0.2,0.5-0.3,0.9l-0.8,12.1c0,0.6-0.1,1.1,0.3,1.4c0.3,0.1,0.8,0.1,1.4,0.2c0.7,0,1.6-0.1,2.4-0.9c0.9-1,0.9-2,1-3.2
			L206.6,15.1z"/>
		<path d="M229,49.8c-1.8-0.2-3.1-0.2-3.1-1.1c-0.2-3.6-0.2-6.1-0.4-9.6c0-0.6-0.8-0.6-1.8-0.7c-1.2-0.1-1.8-0.3-2,0.3
			c-0.7,3.5-1.2,5.9-1.8,9.5c-0.1,0.7-1.5,0.5-3.6,0.3c-1-0.1-3.2-0.3-3.1-0.9c3.9-16.4,6.5-27.4,10-42.6c0.2-0.9,2-0.8,3.4-0.7
			c1.6,0.1,3.3,0.4,3.3,1.5c1,16.5,1.5,26.6,2.5,43.5C232.6,50.2,230.7,50,229,49.8 M225.8,20.9c0-0.3,0-1.7-0.4-1.8
			c-0.3,0-0.6,1.6-0.6,1.8c-0.8,4.9-1.3,8.1-1.9,12.2c-0.1,0.4,0.3,0.5,1.2,0.6c0.8,0.1,1.5,0.3,1.4-0.3
			C225.6,28.6,225.7,25.9,225.8,20.9"/>
		<path d="M252.9,47.1c-2,2.2-5,2.9-7.5,2.9c-1.9,0-4.7,0.1-6.2,0c-0.9-0.1-1.7,0.1-1.9-0.3c-0.3-0.4-0.4-0.6-0.4-1.9l-0.1-40.6
			c0-0.8,0-1.3,0.4-1.7c0.4-0.4,0.8-0.3,1.5-0.3l6.3,0c2.8,0,5.7,0.8,7.6,2.7c1.8,1.8,2.5,4.3,2.5,7l0,5.4c0,2-0.4,3.2-1.2,4.4
			c-1.1,1.5-2.9,1.8-2.9,2.1c0,0.2,2.1,0.4,3.4,2.2c0.8,1.2,1,2.2,1,4l0,7.4C255.5,42.6,255,44.9,252.9,47.1 M248.3,16.2
			c0-1.3-0.1-2.6-0.9-3.5c-0.4-0.5-0.9-0.8-2-0.8c-0.8,0-1.3,0-1.5,0.3c-0.2,0.3-0.3,0.5-0.3,0.9l0,9.5c0,0.6,0,1,0.3,1.2
			c0.3,0.3,0.6,0.2,1.2,0.2c0.7,0,1.6-0.2,2.3-1c0.8-0.9,0.9-1.8,0.9-2.5L248.3,16.2z M248.6,34.2c0-2.4-0.8-4-2.6-4
			c-2,0-2.3,0.1-2.3,1.2l0,10.5c0,0.6,0,1.3,0.5,1.3c0.3,0.1,0.6,0.1,1.3,0.1c0.6,0,1.6-0.1,2.3-0.9c0.8-0.8,0.9-1.7,0.9-2.8
			L248.6,34.2z"/>
		<path d="M272.9,52.3c-3.1-0.2-10.5-0.8-12.3-0.9c-0.9-0.1-1.8-0.1-2.1-0.5c-0.4-0.5-0.2-1.4-0.2-2.3c1.1-15.3,1.9-25.7,3-41
			c0.1-0.9,0.4-1,3.3-0.8c3.3,0.2,3.6,0.3,3.6,1.3c-1,13.7-1.8,25.3-2.5,34.8c-0.1,0.8-0.2,1.9,0.2,2.3c0.3,0.2,1.1,0.3,1.7,0.4
			c1.4,0.1,4.3,0.3,5.7,0.4c0.8,0.1,0.9,0.4,0.7,3.1C273.7,52.2,273.7,52.4,272.9,52.3"/>
		<path d="M291.9,51.6c-2.5,0.1-8.5,0.3-11,0.4c-0.9,0-1.9,0.2-2.3-0.1c-0.5-0.4-0.4-1.2-0.4-1.9c-0.5-13.7-0.8-22.4-1.3-36.1
			c0-0.7,0-0.8,0.4-1.3c0.3-0.5,0.7-0.5,1.3-0.5c3.1-0.1,8.7-0.3,11.8-0.4c0.7,0,0.7,0.4,0.8,2.7c0.1,2.6,0.1,2.9-0.6,2.9
			c-1.5,0.1-4.6,0.2-5.7,0.2c-0.5,0-1.1,0.1-1.3,0.3c-0.3,0.4-0.3,0.4-0.2,1.1c0.1,3.8,0.1,3.7,0.3,7.5c0,0.5-0.1,1.1,0.4,1.5
			c0.4,0.3,0.8,0.2,1.3,0.2c1,0,2.2-0.1,2.7-0.1c0.7,0,0.8,0.3,0.8,2.8c0.1,2.4,0.1,2.7-0.6,2.8c-0.5,0-1.5,0.1-2.6,0.1
			c-0.6,0-1.2,0.1-1.4,0.2c-0.5,0.4-0.4,0.9-0.3,1.7c0.2,4.6,0.1,3.9,0.3,8.5c0,0.7,0.1,1.8,0.4,2c0.3,0.2,1.1,0.2,1.7,0.2
			c1.5-0.1,3.9-0.1,5.4-0.2c0.7,0,0.8,0.2,0.8,2.7C292.6,51.3,292.5,51.6,291.9,51.6"/>
		<path d="M313.7,48.5c-2.2,3.4-3.7,4.6-7.9,4.3c-4.8-0.3-8.3-3.5-7.9-8.8c0-0.6,0.2-2.5,0.2-3.3c0-0.5,0.6-0.5,2.9-0.4
			c2.3,0.2,3.5,0.3,3.4,0.7c-0.1,0.8-0.1,1.9-0.2,2.5c-0.2,2.2,0.2,3.5,1.9,3.6c1.6,0.1,2.1-1,2.3-2c0.1-1,0.3-1.9,0.3-2.7
			c0.4-5.1-10.2-13-9.5-21.8c0.1-1.6,1-4.3,1.9-5.6c0.9-1.3,3.1-3.6,7.1-3.3c5,0.4,8,4.3,7.7,8.6c-0.1,0.9-0.1,1.9-0.2,2.9
			c0,0.4-0.8,0.3-2.8,0.1c-2.2-0.2-3.4-0.2-3.4-0.7c0.1-0.8,0.2-2.2,0.2-2.7c0.1-1.6-0.9-2.7-1.9-2.8c-1.1-0.1-1.9,0.8-2.1,1.7
			c-0.2,0.9-0.3,1.6-0.3,2.3c-0.5,6.9,10.3,12.5,9.6,22C314.9,45.1,314.5,47.3,313.7,48.5"/>
		<path d="M54.1,40.9c-1.8,3.7-3.1,5-7.3,5.3c-4.8,0.3-8.7-2.4-9-7.7c0-0.6-0.1-2.5-0.2-3.3c0-0.5,0.5-0.6,2.8-0.7
			c2.3-0.1,3.5-0.2,3.5,0.3c0,0.8,0.1,1.9,0.1,2.5c0.1,2.2,0.6,3.4,2.4,3.3c1.6-0.1,1.9-1.3,2-2.3c0-1,0-1.9,0-2.7
			c-0.3-5.1-11.8-11.6-12.2-20.3c-0.1-1.6,0.5-4.4,1.1-5.8C38,8,40,5.4,44,5.2c5-0.3,8.5,3.2,8.8,7.5c0,0.9,0.1,1.9,0.2,2.9
			c0,0.4-0.8,0.4-2.8,0.5c-2.2,0.1-3.4,0.2-3.4-0.2c0-0.8-0.1-2.2-0.2-2.7c-0.1-1.6-1.3-2.6-2.3-2.5c-1.1,0.1-1.8,1-1.9,2
			c-0.1,0.9-0.1,1.6,0,2.4c0.4,6.9,11.8,11,12.4,20.6C54.8,37.3,54.7,39.5,54.1,40.9"/>
		<path d="M73.2,44.7c-1.3,3.3-2.3,4.6-6,5.1c-4.1,0.5-7.7-1.5-8.3-6.1c-0.1-0.6-0.3-2.2-0.4-2.8C58.6,40.4,59,40.2,61,40
			c2-0.3,3-0.4,3,0c0.1,0.7,0.2,1.6,0.3,2.1c0.2,1.9,0.7,2.9,2.3,2.7c1.4-0.2,1.6-1.2,1.6-2.1c-0.1-0.9-0.1-1.6-0.2-2.3
			C67.4,36,57,31.1,56,23.6c-0.2-1.4,0.1-3.8,0.6-5.1c0.5-1.2,2-3.6,5.5-4.1c4.3-0.6,7.6,2.2,8.1,5.9c0.1,0.8,0.2,1.6,0.3,2.5
			c0,0.4-0.7,0.4-2.4,0.6c-1.9,0.3-2.9,0.4-3,0c-0.1-0.7-0.2-1.9-0.3-2.3c-0.2-1.4-1.3-2.1-2.1-2c-0.9,0.1-1.5,1-1.5,1.8
			c0,0.8,0,1.4,0.1,2c0.8,6,11,8.8,12.1,17C73.6,41.6,73.7,43.5,73.2,44.7"/>
		<path d="M159.5,45.6c-1.3,0.6-2.9,0-3.5-1.3c-0.6-1.3,0-2.9,1.3-3.5c1.3-0.6,2.9,0,3.5,1.3C161.4,43.4,160.8,45,159.5,45.6"/>
		<path d="M26.9,46.2c-5.9,0.4-9.5-3.3-9.9-8.5L16.1,27c-0.4-5.6,3.3-9.4,8.6-9.8c5.5-0.4,9.6,2.9,10,8.4l0.8,10.6
			C35.9,41.7,33,45.7,26.9,46.2 M27.9,27.5c-0.1-1.8-0.9-3.8-2.7-3.6c-1.9,0.1-2.3,2.2-2.1,4l0-0.1c0.6,8.6,0.9,11.9,3.3,11.7
			C28.6,39.3,28.6,37.1,27.9,27.5L27.9,27.5z"/>
		<path d="M27.7,55.5c-1.3,0.7-2.9,0.3-3.6-1c-0.7-1.3-0.3-2.9,1-3.6c1.3-0.7,2.9-0.3,3.6,1C29.4,53.2,29,54.8,27.7,55.5"/>
	</g>
	<g class="st0">
		<path d="M89.8,14.3L91,34.2l-3.7,0.2l-1.2-19.9l-3.6,0.2l-0.2-3.4l10.8-0.7l0.2,3.4L89.8,14.3z"/>
	</g>
	<g class="st0">
		<path d="M101.3,39l-0.6-9.8l-3.9,0.3l0.6,9.8l-3.7,0.2l-1.5-23.3l3.7-0.2l0.7,10.1l3.9-0.3l-0.7-10.1l3.7-0.2l1.5,23.3L101.3,39z"
			/>
	</g>
	<g class="st0">
		<path d="M106.5,34.7l0-23.3l9.3,0l0,3.3l-5.6,0l0,6.4l3.9,0l0,3.1l-3.9,0l0,7.1l5.6,0l0,3.4L106.5,34.7z"/>
	</g>
	<path class="st0" d="M114.9,46.2l-25,1.8c-1.4,0.1-2.8-0.4-3-1.1v0c-0.2-0.7,0.8-1.4,2.2-1.5l25-1.8c1.4-0.1,2.8,0.4,3,1.1v0
		C117.3,45.5,116.3,46.1,114.9,46.2z"/>
	<g class="st0">
		<path d="M11.8,12.5l0.7,40l-6,0.1l-0.7-40l-5.7,0.1L0,6.9l17.2-0.3l0.1,5.9L11.8,12.5z"/>
	</g>
</g>
<g>
	<path class="st1" d="M143.8,31c-1.9,2-4.6,2.7-7,2.9c-0.9,0.1-1.4,0.5-1.2,2.1l1.1,13.9c0.1,1.1-0.6,1.1-3.5,1.3
		c-2.9,0.2-3.3,0.3-3.4-1.1l-3.3-41.3c-0.1-0.8,0-1.3,0.2-1.6c0.3-0.5,0.8-0.4,1.6-0.5l6.5-0.5c2.6-0.2,5.2,0.2,7.2,1.7
		c2.3,1.6,3.5,4,3.7,7.2l0.7,8.4C146.6,25.9,146,28.6,143.8,31 M138.9,16.8c-0.1-1.3-0.3-2.5-1.1-3.4c-0.6-0.5-1.1-0.7-2.2-0.6
		c-0.8,0.1-1.5,0.1-1.7,0.4c-0.2,0.3-0.2,0.5-0.1,0.9l1,12.1c0,0.6,0,1.2,0.5,1.3c0.3,0,0.8,0,1.4,0c0.7-0.1,1.6-0.3,2.2-1.2
		c0.7-1.2,0.6-2.1,0.5-3.3L138.9,16.8z"/>
	<path class="st1" d="M159.6,35.2c-5.9-0.1-9.2-4.2-9.1-9.4l0.2-10.7c0.1-5.6,4.2-9.1,9.5-8.9c5.5,0.1,9.3,3.8,9.1,9.4l-0.2,10.7
		C169,31.6,165.8,35.4,159.6,35.2 M162.4,16.7c0-1.8-0.5-3.9-2.3-3.9c-1.9,0-2.5,2-2.5,3.8l0-0.1c-0.2,8.6-0.2,11.9,2.2,12
		C162,28.5,162.2,26.3,162.4,16.7L162.4,16.7z"/>
	<path class="st1" d="M188.3,26.5c-2.2,1.7-5,2-7.3,1.8c-0.9-0.1-1.4,0.3-1.6,1.9l-1,13.9c-0.1,1.1-0.7,1-3.7,0.8
		c-2.9-0.2-3.3-0.2-3.1-1.6l3.1-41.3c0.1-0.8,0.2-1.3,0.4-1.6c0.4-0.4,0.9-0.3,1.6-0.3l6.5,0.5c2.6,0.2,5.1,1,6.9,2.8
		c2,1.9,2.8,4.4,2.6,7.6l-0.6,8.4C191.8,21.9,190.9,24.4,188.3,26.5 M185.7,11.8c0.1-1.3,0.1-2.6-0.6-3.6c-0.5-0.5-1-0.8-2-0.9
		c-0.8-0.1-1.5-0.1-1.7,0.1c-0.2,0.2-0.2,0.5-0.3,0.9l-0.9,12.1c0,0.6-0.2,1.1,0.3,1.4c0.3,0.1,0.8,0.1,1.4,0.2
		c0.7,0.1,1.6-0.1,2.4-0.8c0.9-1,0.9-2,1-3.2L185.7,11.8z"/>
	<path class="st1" d="M209.3,28.7c-2.2,1.7-5,2-7.3,1.9c-0.9-0.1-1.4,0.3-1.5,1.9l-1,13.9c-0.1,1.1-0.7,1-3.6,0.8
		c-2.9-0.2-3.3-0.2-3.2-1.6l2.8-41.3c0.1-0.8,0.2-1.3,0.4-1.6c0.4-0.4,0.9-0.3,1.6-0.3l6.5,0.4c2.6,0.2,5.1,1,6.9,2.7
		c2,1.9,2.8,4.4,2.6,7.6l-0.6,8.4C212.8,24.2,211.9,26.7,209.3,28.7 M206.6,14.1c0.1-1.3,0.1-2.6-0.6-3.6c-0.5-0.5-1-0.8-2.1-0.9
		c-0.8-0.1-1.5-0.1-1.7,0.1c-0.2,0.2-0.2,0.5-0.3,0.9l-0.8,12.1c0,0.6-0.1,1.1,0.3,1.4c0.3,0.1,0.8,0.1,1.4,0.2
		c0.7,0,1.6-0.1,2.4-0.9c0.9-1,0.9-2,1-3.2L206.6,14.1z"/>
	<path class="st1" d="M229,48.8c-1.8-0.2-3.1-0.2-3.1-1.1c-0.2-3.6-0.2-6.1-0.4-9.6c0-0.6-0.8-0.6-1.8-0.7c-1.2-0.1-1.8-0.3-2,0.3
		c-0.7,3.5-1.2,5.9-1.8,9.5c-0.1,0.7-1.5,0.5-3.6,0.3c-1-0.1-3.2-0.3-3.1-0.9c3.9-16.4,6.5-27.4,10-42.6c0.2-0.9,2-0.8,3.4-0.7
		c1.6,0.1,3.3,0.4,3.3,1.5c1,16.5,1.5,26.6,2.5,43.5C232.6,49.2,230.7,49,229,48.8 M225.8,19.9c0-0.3,0-1.7-0.4-1.8
		c-0.3,0-0.6,1.6-0.6,1.8c-0.8,4.9-1.3,8.1-1.9,12.2c-0.1,0.4,0.3,0.5,1.2,0.6c0.8,0.1,1.5,0.3,1.4-0.3
		C225.6,27.6,225.7,24.9,225.8,19.9"/>
	<path class="st1" d="M252.9,46.1c-2,2.2-5,2.9-7.5,2.9c-1.9,0-4.7,0.1-6.2,0c-0.9-0.1-1.7,0.1-1.9-0.3c-0.3-0.4-0.4-0.6-0.4-1.9
		l-0.1-40.6c0-0.8,0-1.3,0.4-1.7c0.4-0.4,0.8-0.3,1.5-0.3l6.3,0c2.8,0,5.7,0.8,7.6,2.7c1.8,1.8,2.5,4.3,2.5,7l0,5.4
		c0,2-0.4,3.2-1.2,4.4c-1.1,1.5-2.9,1.8-2.9,2.1c0,0.2,2.1,0.4,3.4,2.2c0.8,1.2,1,2.2,1,4l0,7.4C255.5,41.6,255,43.9,252.9,46.1
		 M248.3,15.2c0-1.3-0.1-2.6-0.9-3.5c-0.4-0.5-0.9-0.8-2-0.8c-0.8,0-1.3,0-1.5,0.3c-0.2,0.3-0.3,0.5-0.3,0.9l0,9.5
		c0,0.6,0,1,0.3,1.2c0.3,0.3,0.6,0.2,1.2,0.2c0.7,0,1.6-0.2,2.3-1c0.8-0.9,0.9-1.8,0.9-2.5L248.3,15.2z M248.6,33.2
		c0-2.4-0.8-4-2.6-4c-2,0-2.3,0.1-2.3,1.2l0,10.5c0,0.6,0,1.3,0.5,1.3c0.3,0.1,0.6,0.1,1.3,0.1c0.6,0,1.6-0.1,2.3-0.9
		c0.8-0.8,0.9-1.7,0.9-2.8L248.6,33.2z"/>
	<path class="st1" d="M272.9,51.3c-3.1-0.2-10.5-0.8-12.3-0.9c-0.9-0.1-1.8-0.1-2.1-0.5c-0.4-0.5-0.2-1.4-0.2-2.3
		c1.1-15.3,1.9-25.7,3-41c0.1-0.9,0.4-1,3.3-0.8c3.3,0.2,3.6,0.3,3.6,1.3c-1,13.7-1.8,25.3-2.5,34.8c-0.1,0.8-0.2,1.9,0.2,2.3
		c0.3,0.2,1.1,0.3,1.7,0.4c1.4,0.1,4.3,0.3,5.7,0.4c0.8,0.1,0.9,0.4,0.7,3.1C273.7,51.2,273.7,51.4,272.9,51.3"/>
	<path class="st1" d="M291.9,50.6c-2.5,0.1-8.5,0.3-11,0.4c-0.9,0-1.9,0.2-2.3-0.1c-0.5-0.4-0.4-1.2-0.4-1.9
		c-0.5-13.7-0.8-22.4-1.3-36.1c0-0.7,0-0.8,0.4-1.3c0.3-0.5,0.7-0.5,1.3-0.5c3.1-0.1,8.7-0.3,11.8-0.4c0.7,0,0.7,0.4,0.8,2.7
		c0.1,2.6,0.1,2.9-0.6,2.9c-1.5,0.1-4.6,0.2-5.7,0.2c-0.5,0-1.1,0.1-1.3,0.3c-0.3,0.4-0.3,0.4-0.2,1.1c0.1,3.8,0.1,3.7,0.3,7.5
		c0,0.5-0.1,1.1,0.4,1.5c0.4,0.3,0.8,0.2,1.3,0.2c1,0,2.2-0.1,2.7-0.1c0.7,0,0.8,0.3,0.8,2.8c0.1,2.4,0.1,2.7-0.6,2.8
		c-0.5,0-1.5,0.1-2.6,0.1c-0.6,0-1.2,0.1-1.4,0.2c-0.5,0.4-0.4,0.9-0.3,1.7c0.2,4.6,0.1,3.9,0.3,8.5c0,0.7,0.1,1.8,0.4,2
		c0.3,0.2,1.1,0.2,1.7,0.2c1.5-0.1,3.9-0.1,5.4-0.2c0.7,0,0.8,0.2,0.8,2.7C292.6,50.3,292.5,50.6,291.9,50.6"/>
	<path class="st1" d="M313.7,47.5c-2.2,3.4-3.7,4.6-7.9,4.3c-4.8-0.3-8.3-3.5-7.9-8.8c0-0.6,0.2-2.5,0.2-3.3c0-0.5,0.6-0.5,2.9-0.4
		c2.3,0.2,3.5,0.3,3.4,0.7c-0.1,0.8-0.1,1.9-0.2,2.5c-0.2,2.2,0.2,3.5,1.9,3.6c1.6,0.1,2.1-1,2.3-2c0.1-1,0.3-1.9,0.3-2.7
		c0.4-5.1-10.2-13-9.5-21.8c0.1-1.6,1-4.3,1.9-5.6c0.9-1.3,3.1-3.6,7.1-3.3c5,0.4,8,4.3,7.7,8.6c-0.1,0.9-0.1,1.9-0.2,2.9
		c0,0.4-0.8,0.3-2.8,0.1c-2.2-0.2-3.4-0.2-3.4-0.7c0.1-0.8,0.2-2.2,0.2-2.7c0.1-1.6-0.9-2.7-1.9-2.8c-1.1-0.1-1.9,0.8-2.1,1.7
		c-0.2,0.9-0.3,1.6-0.3,2.3c-0.5,6.9,10.3,12.5,9.6,22C314.9,44.1,314.5,46.3,313.7,47.5"/>
	<path class="st1" d="M54.1,39.9c-1.8,3.7-3.1,5-7.3,5.3c-4.8,0.3-8.7-2.4-9-7.7c0-0.6-0.1-2.5-0.2-3.3c0-0.5,0.5-0.6,2.8-0.7
		c2.3-0.1,3.5-0.2,3.5,0.3c0,0.8,0.1,1.9,0.1,2.5c0.1,2.2,0.6,3.4,2.4,3.3c1.6-0.1,1.9-1.3,2-2.3c0-1,0-1.9,0-2.7
		c-0.3-5.1-11.8-11.6-12.2-20.3c-0.1-1.6,0.5-4.4,1.1-5.8C38,7,40,4.4,44,4.2c5-0.3,8.5,3.2,8.8,7.5c0,0.9,0.1,1.9,0.2,2.9
		c0,0.4-0.8,0.4-2.8,0.5c-2.2,0.1-3.4,0.2-3.4-0.2c0-0.8-0.1-2.2-0.2-2.7c-0.1-1.6-1.3-2.6-2.3-2.5c-1.1,0.1-1.8,1-1.9,2
		c-0.1,0.9-0.1,1.6,0,2.4c0.4,6.9,11.8,11,12.4,20.6C54.8,36.3,54.7,38.5,54.1,39.9"/>
	<path class="st1" d="M73.2,43.7c-1.3,3.3-2.3,4.6-6,5.1c-4.1,0.5-7.7-1.5-8.3-6.1c-0.1-0.6-0.3-2.2-0.4-2.8
		C58.6,39.4,59,39.2,61,39c2-0.3,3-0.4,3,0c0.1,0.7,0.2,1.6,0.3,2.1c0.2,1.9,0.7,2.9,2.3,2.7c1.4-0.2,1.6-1.2,1.6-2.1
		c-0.1-0.9-0.1-1.6-0.2-2.3C67.4,35,57,30.1,56,22.6c-0.2-1.4,0.1-3.8,0.6-5.1c0.5-1.2,2-3.6,5.5-4.1c4.3-0.6,7.6,2.2,8.1,5.9
		c0.1,0.8,0.2,1.6,0.3,2.5c0,0.4-0.7,0.4-2.4,0.6c-1.9,0.3-2.9,0.4-3,0c-0.1-0.7-0.2-1.9-0.3-2.3c-0.2-1.4-1.3-2.1-2.1-2
		c-0.9,0.1-1.5,1-1.5,1.8c0,0.8,0,1.4,0.1,2c0.8,6,11,8.8,12.1,17C73.6,40.6,73.7,42.5,73.2,43.7"/>
	<path class="st1" d="M159.5,44.6c-1.3,0.6-2.9,0-3.5-1.3c-0.6-1.3,0-2.9,1.3-3.5c1.3-0.6,2.9,0,3.5,1.3
		C161.4,42.4,160.8,44,159.5,44.6"/>
	<path class="st1" d="M26.9,45.2c-5.9,0.4-9.5-3.3-9.9-8.5L16.1,26c-0.4-5.6,3.3-9.4,8.6-9.8c5.5-0.4,9.6,2.9,10,8.4l0.8,10.6
		C35.9,40.7,33,44.7,26.9,45.2 M27.9,26.5c-0.1-1.8-0.9-3.8-2.7-3.6c-1.9,0.1-2.3,2.2-2.1,4l0-0.1c0.6,8.6,0.9,11.9,3.3,11.7
		C28.6,38.3,28.6,36.1,27.9,26.5L27.9,26.5z"/>
	<path class="st1" d="M27.7,54.5c-1.3,0.7-2.9,0.3-3.6-1c-0.7-1.3-0.3-2.9,1-3.6c1.3-0.7,2.9-0.3,3.6,1C29.4,52.2,29,53.8,27.7,54.5
		"/>
</g>
<g>
	<path class="st1" d="M89.8,13.3L91,33.2l-3.7,0.2l-1.2-19.9l-3.6,0.2l-0.2-3.4l10.8-0.7l0.2,3.4L89.8,13.3z"/>
</g>
<g>
	<path class="st1" d="M101.3,38l-0.6-9.8l-3.9,0.3l0.6,9.8l-3.7,0.2l-1.5-23.3l3.7-0.2l0.7,10.1l3.9-0.3l-0.7-10.1l3.7-0.2l1.5,23.3
		L101.3,38z"/>
</g>
<g>
	<path class="st1" d="M106.5,33.7l0-23.3l9.3,0l0,3.3l-5.6,0l0,6.4l3.9,0l0,3.1l-3.9,0l0,7.1l5.6,0l0,3.4L106.5,33.7z"/>
</g>
<path class="st1" d="M114.9,45.2l-25,1.8c-1.4,0.1-2.8-0.4-3-1.1v0c-0.2-0.7,0.8-1.4,2.2-1.5l25-1.8c1.4-0.1,2.8,0.4,3,1.1v0
	C117.3,44.5,116.3,45.1,114.9,45.2z"/>
<g>
	<path class="st1" d="M11.8,11.5l0.7,40l-6,0.1l-0.7-40l-5.7,0.1L0,5.9l17.2-0.3l0.1,5.9L11.8,11.5z"/>
</g>
</svg>
