<?xml version="1.0" encoding="utf-8"?>
<!-- Generator: Adobe Illustrator 21.0.0, SVG Export Plug-In . SVG Version: 6.00 Build 0)  -->
<svg version="1.1" id="Layer_1" xmlns="http://www.w3.org/2000/svg" xmlns:xlink="http://www.w3.org/1999/xlink" x="0px" y="0px"
	 viewBox="0 0 301.3 65.6" style="enable-background:new 0 0 301.3 65.6;" xml:space="preserve">
<style type="text/css">
	.st0{fill:#FFFFFF;}
</style>
<g>
	<path class="st0" d="M20.9,43.3c-1.5,2.3-4.1,3.5-6.4,4.1c-0.9,0.2-1.3,0.7-0.9,2.3l3.5,13.5c0.3,1.1-0.4,1.1-3.2,1.9
		c-2.8,0.7-3.2,0.8-3.5-0.6L0.2,24.3C0,23.6-0.1,23,0.1,22.7c0.2-0.5,0.7-0.6,1.5-0.8l6.3-1.6c2.5-0.6,5.1-0.6,7.4,0.4
		c2.6,1.2,4.1,3.3,4.9,6.4l2.1,8.1C22.9,37.8,22.7,40.5,20.9,43.3 M13.8,30.2c-0.3-1.3-0.7-2.5-1.7-3.2c-0.6-0.4-1.2-0.5-2.2-0.2
		c-0.7,0.2-1.4,0.4-1.6,0.7c-0.1,0.3-0.1,0.5,0,0.9l3,11.8c0.2,0.6,0.2,1.1,0.7,1.2c0.3,0,0.8-0.1,1.4-0.3c0.7-0.2,1.5-0.6,2-1.6
		c0.5-1.3,0.2-2.2-0.1-3.4L13.8,30.2z"/>
	<path class="st0" d="M37.2,44.8c-5.8,0.9-9.8-2.5-10.5-7.7l-1.6-10.5c-0.8-5.5,2.6-9.6,7.8-10.4c5.4-0.8,9.8,2.2,10.6,7.7l1.6,10.5
		C45.9,39.6,43.4,43.8,37.2,44.8 M36.9,26c-0.3-1.8-1.1-3.7-3-3.4c-1.9,0.3-2.1,2.4-1.8,4.2v-0.1c1.3,8.5,1.8,11.8,4.2,11.4
		C38.4,37.7,38.3,35.5,36.9,26L36.9,26z"/>
	<path class="st0" d="M64.6,30.5c-2,1.9-4.7,2.5-7.1,2.6c-0.9,0-1.4,0.4-1.3,2L56.7,49c0,1.1-0.6,1-3.5,1.1s-3.3,0.1-3.3-1.3
		L48.4,7.6c0-0.8,0-1.3,0.3-1.6c0.3-0.5,0.8-0.4,1.6-0.4l6.5-0.2c2.6-0.1,5.1,0.5,7.1,2c2.2,1.7,3.3,4.1,3.4,7.3l0.3,8.4
		C67.7,25.6,67,28.2,64.6,30.5 M60.4,16.2c0-1.3-0.1-2.6-0.9-3.5C59,12.2,58.4,12,57.4,12c-0.8,0-1.5,0-1.7,0.3s-0.2,0.5-0.2,0.9
		l0.4,12.2c0,0.6,0,1.2,0.4,1.3c0.3,0.1,0.8,0,1.4,0c0.7,0,1.6-0.2,2.3-1.1c0.8-1.1,0.7-2.1,0.7-3.3L60.4,16.2z"/>
	<path class="st0" d="M88,31.4c-1.8,2.1-4.5,2.8-6.9,3.1c-0.9,0.1-1.4,0.5-1.2,2.1l1.4,13.9c0.1,1.1-0.5,1.1-3.5,1.4
		c-2.9,0.3-3.2,0.3-3.4-1.1L70.2,9.6c-0.1-0.8-0.1-1.3,0.2-1.6c0.3-0.5,0.8-0.5,1.6-0.5l6.5-0.7c2.5-0.3,5.2,0.1,7.2,1.5
		c2.3,1.6,3.6,3.9,3.9,7.1l0.9,8.3C90.7,26.3,90.2,28.9,88,31.4 M82.8,17.4c-0.1-1.3-0.3-2.5-1.2-3.4c-0.6-0.5-1.2-0.7-2.2-0.5
		c-0.8,0.1-1.5,0.2-1.7,0.4c-0.2,0.3-0.1,0.5-0.1,0.9l1.2,12.1c0.1,0.6,0.1,1.2,0.5,1.3c0.3,0,0.8,0,1.4-0.1
		c0.7-0.1,1.6-0.4,2.2-1.3c0.7-1.2,0.6-2.1,0.4-3.3L82.8,17.4z"/>
	<path class="st0" d="M107.6,44.9c-1.9,0-3.1,0.1-3.2-0.8c-0.5-3.6-0.7-6-1.1-9.6c-0.1-0.6-0.8-0.5-1.8-0.5c-1.2,0-1.9-0.2-1.9,0.5
		c-0.4,3.6-0.7,5.9-1.1,9.6c-0.1,0.7-1.5,0.6-3.5,0.6c-1,0-3.2,0-3.1-0.6c2.6-16.7,4.4-27.8,6.8-43.2c0-0.9,1.8-0.9,3.2-0.9
		c1.6,0,3.3,0.1,3.4,1.2c2.3,16.4,3.5,26.4,5.8,43.2C111.3,45.1,109.4,45,107.6,44.9 M102.2,16.3c0-0.3-0.1-1.7-0.6-1.7
		c-0.3,0-0.5,1.6-0.5,1.8c-0.4,5-0.7,8.2-1,12.3c-0.1,0.4,0.3,0.5,1.3,0.5c0.8,0,1.5,0.1,1.4-0.4C102.6,24.1,102.5,21.4,102.2,16.3"
		/>
	<path class="st0" d="M132.8,44.3c-1.6,2.5-4.4,3.7-6.9,4.1c-1.9,0.3-4.6,0.9-6.1,1.1c-0.9,0.1-1.7,0.4-1.9,0
		c-0.4-0.4-0.5-0.5-0.7-1.8l-7-40c-0.1-0.8-0.2-1.3,0.1-1.7c0.3-0.4,0.8-0.5,1.5-0.6l6.2-1.1c2.8-0.5,5.8-0.2,8,1.3
		c2.1,1.5,3.2,3.9,3.7,6.4l0.9,5.4c0.3,2,0.2,3.2-0.4,4.5c-0.9,1.6-2.6,2.3-2.5,2.5c0,0.2,2.1,0,3.7,1.6c1,1,1.4,2,1.7,3.7l1.3,7.3
		C134.7,39.5,134.5,41.8,132.8,44.3 M123.1,14.7c-0.2-1.3-0.5-2.5-1.5-3.3c-0.5-0.4-1-0.6-2.1-0.4c-0.8,0.1-1.3,0.2-1.4,0.5
		s-0.2,0.5-0.1,0.9l1.6,9.4c0.1,0.6,0.2,0.9,0.5,1.1c0.4,0.2,0.7,0.1,1.2,0c0.7-0.1,1.5-0.5,2.1-1.3c0.7-1,0.6-1.9,0.5-2.6
		L123.1,14.7z M126.5,32.3c-0.4-2.3-1.5-3.8-3.3-3.5c-2,0.4-2.3,0.5-2.1,1.6l1.8,10.3c0.1,0.6,0.2,1.3,0.7,1.2c0.3,0,0.6,0,1.3-0.2
		c0.6-0.1,1.6-0.4,2.1-1.3c0.7-1,0.6-1.8,0.4-2.9L126.5,32.3z"/>
	<path class="st0" d="M153.4,45.6c-3.1,0-10.5,0.1-12.3,0.2c-0.9,0-1.8,0-2.1-0.4c-0.4-0.4-0.3-1.4-0.3-2.2
		c-0.2-15.4-0.3-25.8-0.5-41.1c0-0.9,0.3-1,3.2-1.1c3.3,0,3.6,0,3.7,1c0.2,13.7,0.3,25.4,0.4,34.9c0,0.8,0,1.9,0.4,2.2
		c0.3,0.2,1.1,0.2,1.7,0.2c1.4,0,4.3-0.1,5.7-0.1c0.8,0,0.9,0.3,0.9,3C154.2,45.4,154.2,45.6,153.4,45.6"/>
	<path class="st0" d="M173.5,52.8c-2.7,0.1-9.5,0.5-12.3,0.6c-1,0.1-2.1,0.2-2.6-0.1c-0.5-0.4-0.5-1.4-0.5-2.2
		c-0.8-15.3-1.3-25.1-2-40.4c0-0.8,0-0.9,0.4-1.4s0.8-0.6,1.4-0.6c3.5-0.2,9.7-0.5,13.2-0.7c0.8,0,0.8,0.5,0.9,3
		c0.1,2.9,0.2,3.3-0.7,3.3c-1.7,0.1-5.2,0.3-6.4,0.3c-0.5,0-1.3,0.1-1.5,0.4c-0.3,0.5-0.3,0.4-0.3,1.2c0.2,4.3,0.2,4.2,0.4,8.4
		c0,0.6-0.1,1.3,0.5,1.6c0.5,0.3,0.9,0.2,1.4,0.2c1.1-0.1,2.5-0.1,3.1-0.2c0.8,0,0.9,0.3,1,3.2c0.1,2.7,0.2,3.1-0.7,3.1
		c-0.5,0-1.7,0.1-2.9,0.1c-0.6,0-1.3,0.1-1.6,0.3c-0.6,0.4-0.4,1-0.4,1.9c0.3,5.1,0.2,4.4,0.5,9.5c0,0.8,0.1,2,0.4,2.2
		c0.3,0.2,1.2,0.2,1.9,0.2c1.7-0.1,4.3-0.2,6.1-0.3c0.8,0,0.8,0.2,1,3C174.3,52.5,174.2,52.8,173.5,52.8"/>
	<path class="st0" d="M194.8,49.8c-2.3,3.8-3.8,5.2-8.4,5c-5.2-0.2-9.2-3.5-8.9-9.3c0-0.7,0.1-2.8,0.1-3.6c0-0.6,0.6-0.6,3.2-0.5
		c2.6,0.1,3.8,0.1,3.8,0.7c0,0.8-0.1,2-0.1,2.7c-0.1,2.4,0.3,3.8,2.2,3.9c1.7,0.1,2.2-1.2,2.4-2.3c0.1-1.1,0.2-2,0.2-2.9
		c0.2-5.6-11.6-13.8-11.2-23.3c0.1-1.8,0.9-4.7,1.8-6.1c0.9-1.4,3.3-4,7.6-3.9c5.4,0.2,8.9,4.4,8.8,9c0,1-0.1,2-0.1,3.1
		c0,0.4-0.9,0.4-3.1,0.3c-2.4-0.1-3.7-0.1-3.7-0.6c0-0.8,0.1-2.4,0.1-2.9c0.1-1.8-1.1-2.9-2.2-3c-1.2,0-2.1,0.9-2.3,2
		c-0.2,1-0.3,1.7-0.3,2.6c-0.3,7.5,11.7,13.2,11.3,23.6C195.9,46,195.6,48.4,194.8,49.8"/>
	<path class="st0" d="M293.7,60.7c-3,3.3-4.8,4.3-9.3,3.3c-5.1-1.2-8.3-5.2-6.9-10.9c0.2-0.7,0.6-2.7,0.8-3.5
		c0.1-0.6,0.7-0.5,3.2,0.1s3.7,0.9,3.6,1.4c-0.2,0.8-0.5,2-0.6,2.6c-0.5,2.3-0.4,3.8,1.4,4.2c1.7,0.4,2.4-0.7,2.8-1.8
		c0.3-1,0.6-2,0.8-2.8c1.3-5.4-8.7-15.8-6.5-25.1c0.4-1.7,1.8-4.4,3-5.7c1.1-1.2,4-3.3,8.2-2.3c5.3,1.3,7.9,6,6.8,10.6
		c-0.2,0.9-0.5,2-0.7,3c-0.1,0.4-1,0.2-3.1-0.3c-2.4-0.6-3.6-0.9-3.5-1.3c0.2-0.8,0.5-2.3,0.7-2.9c0.4-1.7-0.5-3.1-1.6-3.3
		c-1.1-0.3-2.2,0.5-2.6,1.5c-0.3,0.9-0.6,1.6-0.8,2.4c-1.8,7.3,8.9,15.2,6.5,25.4C295.6,57.2,294.8,59.5,293.7,60.7"/>
	<path class="st0" d="M38.8,54c-1.2,0.8-2.8,0.5-3.7-0.7c-0.8-1.2-0.5-2.8,0.7-3.7c1.2-0.8,2.8-0.5,3.7,0.7
		C40.3,51.6,40,53.2,38.8,54"/>
	<path class="st0" d="M246.4,44.3c-5.9,0-9.3-4-9.2-9.3V24.3c0-5.6,4-9.1,9.3-9.1c5.5,0,9.3,3.6,9.3,9.2v10.7
		C255.7,40.5,252.6,44.4,246.4,44.3 M248.9,25.8c0-1.8-0.6-3.8-2.4-3.8c-1.9,0-2.4,2-2.4,3.8v-0.1c0,8.6,0,11.9,2.4,11.9
		C248.7,37.6,248.9,35.4,248.9,25.8L248.9,25.8z"/>
	<path class="st0" d="M246.5,53.7c-1.3,0.6-2.9,0.1-3.5-1.2s-0.1-2.9,1.2-3.5s2.9-0.1,3.5,1.2C248.4,51.5,247.8,53.1,246.5,53.7"/>
</g>
<g>
	<path class="st0" d="M223,56.8l-11-0.4l1.8-44.1l11,0.4c5.8,0.2,10,4.1,9.7,10.7l-1,24.1C233.3,54.1,228.8,57.1,223,56.8z
		 M226.1,23c0.1-1.9-0.6-2.9-2.3-2.9l-1.7-0.1l-1.2,29.4l1.7,0.1c1.7,0.1,2.4-0.8,2.5-2.7L226.1,23z"/>
</g>
<g>
	<path class="st0" d="M273.1,21.4l-6.3,35.8l-8.3-1.5l6.3-35.8l-6-1.1l1.3-7.6l20.3,3.6l-1.3,7.6L273.1,21.4z"/>
</g>
</svg>
