<?xml version="1.0" encoding="utf-8"?>
<!-- Generator: Adobe Illustrator 21.0.0, SVG Export Plug-In . SVG Version: 6.00 Build 0)  -->
<svg version="1.1" id="Layer_1" xmlns="http://www.w3.org/2000/svg" xmlns:xlink="http://www.w3.org/1999/xlink" x="0px" y="0px"
	 viewBox="0 0 31.9 32" style="enable-background:new 0 0 31.9 32;" xml:space="preserve">
<style type="text/css">
	.st0{fill:#EB1F4A;}
</style>
<path id="muted" class="st0" d="M28.8,16.1l2.9-2.9c0.4-0.4,0.4-1,0-1.4l-1.4-1.4c-0.4-0.4-1-0.4-1.4,0l-2.9,2.9l-2.9-2.9
	c-0.4-0.4-1-0.4-1.4,0l-1.4,1.4c-0.4,0.4-0.4,1,0,1.4l2.9,2.9l-2.9,2.9c-0.4,0.4-0.4,1,0,1.4l1.4,1.4c0.4,0.4,1,0.4,1.4,0l2.9-2.9
	l2.9,2.9c0.4,0.4,1,0.4,1.4,0l1.4-1.4c0.4-0.4,0.4-1,0-1.4L28.8,16.1z M16,0.3L8,8H2c-1.1,0-2,0.9-2,2.1V22c0,1.1,0.9,2,2,2h6
	l8.1,7.8c0,0,1.9,1.1,1.9-2.1V2.2C18-1.1,16,0.3,16,0.3L16,0.3z"/>
</svg>
