<?xml version="1.0" encoding="utf-8"?>
<!-- Generator: Adobe Illustrator 21.0.0, SVG Export Plug-In . SVG Version: 6.00 Build 0)  -->
<svg version="1.1" id="Layer_1" xmlns="http://www.w3.org/2000/svg" xmlns:xlink="http://www.w3.org/1999/xlink" x="0px" y="0px"
	 viewBox="0 0 23.2 27.6" style="enable-background:new 0 0 23.2 27.6;" xml:space="preserve">
<style type="text/css">
	.st0{fill:#FD8224;}
</style>
<path id="Rounded_Rectangle_2" class="st0" d="M19.5,0h1.8c1.1,0,1.9,0.9,1.9,1.9v23.7c0,1.1-0.9,1.9-1.9,1.9h-1.8
	c-1.1,0-1.9-0.9-1.9-1.9c0,0,0,0,0,0V1.9C17.6,0.9,18.5,0,19.5,0C19.5,0,19.5,0,19.5,0z M1.9,0h1.8c1.1,0,1.9,0.9,1.9,1.9
	c0,0,0,0,0,0v23.7c0,1.1-0.9,1.9-1.9,1.9c0,0,0,0,0,0H1.9c-1.1,0-1.9-0.9-1.9-1.9V1.9C0,0.9,0.9,0,1.9,0z"/>
</svg>
