<?xml version="1.0" encoding="utf-8"?>
<!-- Generator: Adobe Illustrator 21.0.0, SVG Export Plug-In . SVG Version: 6.00 Build 0)  -->
<svg version="1.1" id="Layer_1" xmlns="http://www.w3.org/2000/svg" xmlns:xlink="http://www.w3.org/1999/xlink" x="0px" y="0px"
	 viewBox="0 0 27.9 31" style="enable-background:new 0 0 27.9 31;" xml:space="preserve">
<style type="text/css">
	.st0{fill:#FD8224;}
</style>
<path id="Unmute" class="st0" d="M19.9,8.7v1.9c0,0.5,0.4,1,1,1.1c2.1,0.5,3.4,2.5,2.9,4.6c-0.3,1.4-1.5,2.6-2.9,2.9
	c-0.5,0.1-0.9,0.5-1,1.1v1.9c0,0.5,0.4,0.9,0.9,0.9c0,0,0.1,0,0.1,0c4.2-0.4,7.4-4.2,6.9-8.4c-0.4-3.7-3.3-6.6-6.9-6.9
	c-0.5-0.1-0.9,0.3-1,0.8C19.9,8.7,19.9,8.7,19.9,8.7z M16,0.3L8,7.8H2c-1.1,0-2,0.9-2,2v11.5c0,1.1,0.9,2,2,2h6l8.1,7.6
	c0,0,1.9,1.1,1.9-2.1V2.2C17.9-1,16,0.3,16,0.3L16,0.3z"/>
</svg>
